<?xml version="1.0" encoding="utf-8"?>
<!-- Generator: Adobe Illustrator 24.3.0, SVG Export Plug-In . SVG Version: 6.00 Build 0)  -->
<svg version="1.1" id="Layer_1" xmlns="http://www.w3.org/2000/svg" xmlns:xlink="http://www.w3.org/1999/xlink" x="0px" y="0px"
	 viewBox="0 0 500 500" style="enable-background:new 0 0 500 500;" xml:space="preserve">
<style type="text/css">
	.st0{fill:#FFFFFF;}
	.st1{fill:none;stroke:#BCBCBC;stroke-width:6;stroke-miterlimit:10;}
	.st2{font-family:'ArialRoundedMTBold';}
	.st3{font-size:118px;}
	.st4{letter-spacing:3;}
</style>
<g>
	<g>
		<path d="M-371.49,478.95l-0.42-0.45c-0.39-0.42-0.88-0.84-1.36-1.25c-1.14-0.97-2.31-1.97-2.5-3.22
			c-0.52-3.42-0.76-6.94-0.99-10.33c-0.15-2.17-0.3-4.41-0.52-6.6c-1.01-9.9-4.76-19.26-11.47-28.62l-0.07-0.1
			c-12.47-17.39-25.37-35.38-31.89-56.31c-4.16-13.37-7.41-27.25-10.55-40.69c-1.05-4.5-2.1-9-3.19-13.49
			c-1.33-5.51-2.66-11.38-2.98-17.24c-0.42-7.59,3.41-13.43,11.07-16.91c7.92-3.59,15-2.55,19.93,2.94
			c3.77,4.19,7.12,9.53,10.54,16.81c2.86,6.08,5.4,12.43,7.85,18.56c1.37,3.43,2.79,6.98,4.25,10.44c0.54,1.28,1.35,2.5,2.14,3.67
			c0.31,0.46,0.61,0.91,0.9,1.38l0.14-0.05V213.25c-2.94-0.56-5.91-1.02-8.78-1.46c-6.69-1.03-13.01-2-19.01-4.21
			c-28.47-10.51-45.38-31.51-50.27-62.42c-5.42-34.25,12.46-68.44,43.48-83.14c9.75-4.62,20.26-6.87,32.13-6.87
			c0.01,0,0.03,0,0.04,0c20.45,0.01,40.9,0.03,61.35,0.05c60.37,0.06,122.79,0.12,184.19-0.14c17.89-0.09,35.31,6.16,48.99,17.56
			c13.71,11.43,23.17,27.64,26.63,45.65c7.45,38.75-13.18,76.17-49.07,88.97c-8.25,2.94-18.11,4.53-28.52,4.6
			c-47.69,0.29-96.17,0.26-143.06,0.22c-15.49-0.01-30.98-0.02-46.47-0.02h-6.32v54.11c5.66-4.4,12-5.81,18.86-4.21
			c6.57,1.54,11.64,5.56,15.06,11.95c8.47-4.55,16.7-5.54,23.82-2.86c6.3,2.37,11.21,7.52,13.86,14.52c0.9-0.32,1.79-0.66,2.69-1
			c2.27-0.87,4.61-1.77,7.02-2.28c6.36-1.34,12.67-0.03,17.33,3.62c4.2,3.29,6.61,8.16,6.79,13.7
			c1.16,35.32,1.03,72.75-13.94,107.84c-3.63,8.5-7.42,15.38-11.59,21.03c-7.11,9.63-10.68,20.85-11.22,35.29
			c-0.04,1.11-0.03,2.25-0.01,3.35c0.03,2.21,0.06,4.5-0.36,6.69c-0.25,1.29-1.34,2.34-2.4,3.36c-0.44,0.43-0.9,0.87-1.27,1.31
			l-0.39,0.46l-0.38-0.46c-0.37-0.44-0.85-0.9-1.32-1.35c-1.12-1.06-2.28-2.17-2.29-3.4c-0.09-6.9,0.41-13.78,0.87-19.01
			c0.91-10.5,4.44-19.95,10.79-28.88c13.62-19.17,21.42-42.34,23.84-70.84c1-11.71,1.3-23.67,1.59-35.25
			c0.12-4.56,0.23-9.12,0.39-13.67c0.07-2.09-0.12-4.28-0.56-6.32c-1.47-6.77-5.33-9.82-12.25-9.56
			c-7.08,0.25-11.26,3.73-12.42,10.34c-0.05,0.3-0.07,0.62-0.09,0.95c-0.05,0.79-0.1,1.6-0.57,2.18c-1.16,1.43-2.72,3.4-4.15,3.23
			c-1.53-0.16-3.4-2.46-3.62-4c-0.33-2.24-0.28-4.55-0.24-6.79c0.02-1.09,0.05-2.17,0.03-3.25c-0.1-5.64-2.7-10.41-7.12-13.1
			c-4.47-2.72-9.98-2.81-15.12-0.26c-4,1.99-5.9,4.94-5.82,9.02c0.01,0.35,0.04,0.71,0.07,1.07c0.09,1.09,0.19,2.21-0.28,3.11
			c-0.63,1.23-2.24,3.56-3.77,3.58c-1.39,0.01-3.44-2.07-3.85-3.58c-0.42-1.57-0.35-3.27-0.29-4.9c0.03-0.73,0.06-1.46,0.05-2.18
			c-0.18-9.55-5.04-15.4-13.33-16.07c-7.21-0.58-13.36,5.51-14.65,14.48c-0.02,0.15-0.01,0.33,0,0.5c0.02,0.4,0.04,0.86-0.23,1.21
			c-0.82,1.06-1.72,2.07-2.59,3.06c-0.32,0.36-0.63,0.72-0.94,1.08l-0.39,0.45l-0.38-0.47c-0.36-0.45-0.76-0.88-1.16-1.31
			c-0.95-1.03-1.93-2.09-2.42-3.38c-0.47-1.24-0.37-2.65-0.28-4.01c0.04-0.55,0.08-1.09,0.08-1.62c0-6.84,0.01-13.69,0.01-20.53
			c0.02-18.84,0.03-38.32-0.08-57.49c-0.03-5.32-0.58-9.79-1.68-13.66c-1.71-6.02-6.19-8.94-13.3-8.65
			c-6.38,0.25-10.19,3.35-11.64,9.46c-0.83,3.48-1.21,7.37-1.22,12.25c-0.06,37.51-0.06,75.66-0.05,112.54l0,30.51
			c0,0.4,0.03,0.81,0.06,1.21c0.07,0.98,0.14,1.99-0.16,2.92c-0.62,1.94-1.39,3.83-2.75,4.6c-1.21,0.69-3.88-0.16-4.92-1.28
			c-0.6-0.65-1.22-1.3-1.83-1.95c-2.85-3-5.8-6.1-7.62-9.73c-3.26-6.52-6.16-13.34-8.97-19.94c-1.41-3.33-2.88-6.77-4.37-10.13
			c-0.49-1.11-0.97-2.23-1.45-3.36c-1.57-3.7-3.2-7.53-5.41-10.87c-3.35-5.05-8.36-6.55-13.77-4.1c-5.34,2.42-7.33,6.82-5.93,13.08
			c0.78,3.47,1.55,6.95,2.32,10.42c3.25,14.63,6.6,29.77,10.41,44.52c4.98,19.3,14.87,38.27,31.13,59.71
			c11.39,15.02,17.05,31.83,17.31,51.39c0,0.3,0.04,0.62,0.08,0.94c0.1,0.78,0.2,1.59-0.15,2.25c-0.64,1.24-1.48,2.38-2.3,3.47
			c-0.33,0.45-0.66,0.89-0.98,1.34L-371.49,478.95z M-249.63,289.17c6.96,0,10.92,3.31,12.45,10.37c0.46,2.12,0.66,4.39,0.59,6.56
			c-0.16,4.55-0.27,9.11-0.39,13.66c-0.29,11.59-0.6,23.57-1.6,35.31c-2.44,28.69-10.3,52.02-24.02,71.34
			c-6.24,8.78-9.71,18.07-10.61,28.39c-0.45,5.2-0.96,12.05-0.86,18.91c0.01,0.81,1.01,1.77,1.98,2.69c0.35,0.33,0.7,0.67,1.02,1.01
			c0.31-0.33,0.64-0.64,0.96-0.95c0.94-0.91,1.92-1.85,2.11-2.83c0.4-2.09,0.37-4.33,0.34-6.49c-0.01-1.12-0.03-2.27,0.01-3.4
			c0.55-14.66,4.18-26.05,11.41-35.85c4.13-5.59,7.88-12.4,11.48-20.83c14.89-34.91,15.01-72.2,13.86-107.42
			c-0.17-5.25-2.45-9.84-6.41-12.95c-4.42-3.46-10.43-4.71-16.5-3.43c-2.33,0.49-4.63,1.38-6.86,2.23
			c-1.06,0.41-2.11,0.81-3.18,1.18l-0.47,0.16l-0.17-0.46c-2.51-6.96-7.29-12.07-13.45-14.39c-6.97-2.63-15.07-1.57-23.43,3.04
			l-0.45,0.25l-0.24-0.46c-3.28-6.38-8.21-10.38-14.64-11.88c-6.87-1.61-13.2-0.04-18.81,4.66l-0.82,0.69v-57.23h7.32
			c15.49,0,30.98,0.01,46.47,0.02c46.89,0.04,95.37,0.07,143.05-0.22c10.3-0.06,20.05-1.63,28.19-4.54
			c35.41-12.64,55.78-49.58,48.42-87.84c-7.09-36.9-37.82-62.58-74.63-62.4c-61.4,0.26-123.82,0.2-184.19,0.14
			c-20.45-0.02-40.9-0.04-61.34-0.05c-0.01,0-0.03,0-0.04,0c-11.72,0-22.09,2.22-31.7,6.77c-30.62,14.51-48.27,48.27-42.92,82.08
			c4.83,30.53,21.53,51.27,49.63,61.64c5.91,2.18,12.18,3.14,18.82,4.16c3.02,0.46,6.13,0.94,9.22,1.55l0.4,0.08v125.79l-1.58,0.51
			l-0.21-0.34c-0.35-0.57-0.72-1.12-1.09-1.68c-0.81-1.22-1.65-2.47-2.23-3.84c-1.46-3.47-2.88-7.02-4.25-10.46
			c-2.45-6.12-4.98-12.46-7.83-18.51c-3.38-7.19-6.68-12.45-10.38-16.56c-4.62-5.14-11.29-6.1-18.78-2.7
			c-7.25,3.29-10.88,8.81-10.49,15.95c0.32,5.78,1.64,11.6,2.96,17.06c1.09,4.49,2.14,9,3.19,13.5
			c3.13,13.41,6.38,27.29,10.53,40.62c6.47,20.78,19.32,38.7,31.75,56.03l0.07,0.1c6.82,9.5,10.63,19.02,11.66,29.1
			c0.23,2.21,0.38,4.46,0.52,6.63c0.23,3.38,0.46,6.87,0.98,10.25c0.13,0.88,1.17,1.76,2.16,2.61c0.34,0.29,0.69,0.59,1.02,0.9
			c0.21-0.29,0.43-0.59,0.65-0.88c0.79-1.07,1.61-2.17,2.21-3.33c0.2-0.39,0.12-1.05,0.04-1.68c-0.04-0.36-0.09-0.71-0.09-1.05
			c-0.25-19.34-5.84-35.96-17.1-50.8c-16.34-21.54-26.29-40.63-31.3-60.06c-3.81-14.77-7.17-29.91-10.41-44.55
			c-0.77-3.47-1.54-6.95-2.32-10.42c-1.52-6.78,0.67-11.56,6.5-14.2c5.9-2.67,11.37-1.05,15.01,4.46c2.26,3.41,3.9,7.28,5.49,11.03
			c0.48,1.12,0.95,2.24,1.44,3.34c1.49,3.37,2.96,6.82,4.37,10.15c2.8,6.59,5.69,13.4,8.94,19.89c1.75,3.5,4.65,6.54,7.45,9.49
			c0.62,0.65,1.24,1.3,1.84,1.96c0.78,0.84,2.99,1.5,3.69,1.09c1.21-0.69,1.94-2.95,2.29-4.04c0.24-0.75,0.18-1.62,0.12-2.54
			c-0.03-0.43-0.06-0.86-0.06-1.28l0-30.51c-0.01-36.89-0.01-75.03,0.05-112.54c0.01-4.96,0.41-8.92,1.25-12.47
			c1.55-6.51,5.78-9.95,12.57-10.22c7.64-0.31,12.45,2.85,14.3,9.38c1.12,3.96,1.69,8.51,1.72,13.93
			c0.11,19.16,0.09,38.65,0.08,57.49c-0.01,6.84-0.01,13.69-0.01,20.53c0,0.55-0.04,1.12-0.08,1.69c-0.09,1.31-0.18,2.55,0.21,3.59
			c0.42,1.1,1.29,2.05,2.22,3.05c0.28,0.3,0.56,0.6,0.82,0.91c0.19-0.21,0.38-0.43,0.56-0.64c0.86-0.97,1.74-1.98,2.55-3.01
			c0.04-0.07,0.03-0.37,0.02-0.54c-0.01-0.23-0.02-0.46,0.01-0.69c1.37-9.51,7.99-15.97,15.72-15.33
			c8.73,0.7,14.06,7.08,14.25,17.05c0.01,0.74-0.02,1.49-0.05,2.24c-0.07,1.63-0.13,3.17,0.25,4.6c0.31,1.18,1.99,2.84,2.86,2.84
			c0,0,0.01,0,0.01,0c0.83-0.01,2.15-1.58,2.9-3.04c0.34-0.65,0.25-1.63,0.17-2.57c-0.03-0.38-0.06-0.77-0.07-1.13
			c-0.09-4.45,2.06-7.79,6.37-9.94c5.45-2.71,11.31-2.6,16.08,0.3c4.72,2.87,7.49,7.95,7.6,13.94c0.02,1.09,0,2.19-0.03,3.29
			c-0.05,2.2-0.09,4.47,0.23,6.62c0.18,1.2,1.79,3.05,2.74,3.15c0.88,0.09,2.43-1.83,3.27-2.87c0.27-0.33,0.31-0.99,0.35-1.62
			c0.02-0.36,0.05-0.72,0.1-1.06c1.24-7.04,5.86-10.91,13.37-11.17C-250.16,289.17-249.89,289.17-249.63,289.17z"/>
	</g>
	<g>
		<path class="st0" d="M-380.12,337.85c0-41.94,0-83.87,0-125.02c-9.7-1.9-19.39-2.51-28.12-5.73
			c-28.76-10.62-45.18-31.92-49.95-62.03c-5.42-34.29,12.36-67.99,43.2-82.61c10.11-4.79,20.79-6.83,31.96-6.82
			c81.85,0.04,163.69,0.26,245.54-0.08c36.74-0.16,67.99,25.74,75.12,62.81c7.35,38.2-13.15,75.7-48.74,88.41
			c-8.89,3.17-18.87,4.51-28.36,4.57c-63.17,0.39-126.35,0.2-189.53,0.2c-2.15,0-4.3,0-6.82,0c0,18.49,0,36.58,0,55.66
			c5.83-4.89,12.27-6.4,19.24-4.77c6.9,1.61,11.77,5.93,14.97,12.14c17.52-9.67,32.38-2.82,37.59,11.61
			c3.36-1.16,6.65-2.7,10.1-3.43c12-2.54,23.12,4.73,23.51,16.85c1.2,36.57,0.83,73.11-13.9,107.63
			c-3.12,7.3-6.84,14.57-11.53,20.93c-7.92,10.73-10.83,22.68-11.31,35.57c-0.12,3.33,0.25,6.74-0.36,9.97
			c-0.31,1.65-2.32,2.97-3.56,4.44c-1.23-1.48-3.48-2.94-3.5-4.44c-0.09-6.32,0.32-12.66,0.87-18.96
			c0.91-10.5,4.53-19.95,10.7-28.63c15.09-21.24,21.76-45.55,23.93-71.09c1.38-16.25,1.42-32.62,1.98-48.94
			c0.07-2.14-0.12-4.35-0.58-6.44c-1.54-7.09-5.63-10.21-12.76-9.96c-7.31,0.26-11.69,3.91-12.9,10.76
			c-0.17,0.98-0.01,2.23-0.56,2.9c-1.03,1.27-2.57,3.17-3.71,3.05c-1.22-0.13-2.97-2.17-3.18-3.58c-0.49-3.26-0.14-6.65-0.2-9.98
			c-0.22-12.26-11.92-19.28-22.96-13.79c-3.92,1.95-6.19,4.94-6.1,9.48c0.03,1.33,0.39,2.89-0.16,3.95
			c-0.72,1.39-2.17,3.29-3.34,3.31c-1.16,0.02-3-1.85-3.36-3.21c-0.58-2.18-0.18-4.63-0.22-6.96c-0.19-9.78-5.27-15.87-13.79-16.56
			c-7.46-0.6-13.85,5.67-15.19,14.91c-0.07,0.49,0.12,1.15-0.13,1.47c-1.11,1.42-2.33,2.75-3.51,4.11c-1.21-1.5-2.85-2.84-3.5-4.56
			c-0.61-1.61-0.17-3.62-0.17-5.45c0-26.01,0.09-52.01-0.06-78.02c-0.03-4.61-0.45-9.38-1.7-13.79c-1.85-6.52-6.72-9.29-13.8-9.01
			c-6.4,0.25-10.56,3.31-12.11,9.84c-0.95,4-1.23,8.23-1.24,12.36c-0.08,47.68-0.05,95.37-0.05,143.05c0,1.33,0.31,2.77-0.08,3.98
			c-0.52,1.6-1.25,3.6-2.52,4.32c-0.95,0.54-3.4-0.21-4.31-1.19c-3.37-3.64-7.19-7.22-9.37-11.56c-4.9-9.79-8.88-20.04-13.32-30.06
			c-2.15-4.84-4-9.93-6.9-14.3c-3.68-5.55-9.02-6.71-14.39-4.28c-5.45,2.47-7.71,6.97-6.21,13.64c4.1,18.35,8.03,36.75,12.73,54.95
			c5.75,22.3,17.48,41.77,31.22,59.88c11.6,15.29,16.96,32.22,17.2,51.1c0.01,1,0.39,2.18-0.01,2.96c-0.87,1.69-2.14,3.18-3.24,4.76
			c-1.3-1.39-3.5-2.65-3.74-4.2c-0.85-5.58-0.93-11.28-1.5-16.91c-1.09-10.71-5.33-20.16-11.57-28.86
			c-12.64-17.62-25.39-35.37-31.89-56.27c-5.53-17.75-9.35-36.05-13.73-54.15c-1.36-5.64-2.65-11.39-2.97-17.15
			c-0.43-7.78,3.73-13.23,10.78-16.43c7.06-3.21,14.17-2.94,19.36,2.82c4.33,4.82,7.68,10.77,10.46,16.69
			c4.45,9.46,8.02,19.34,12.09,28.98c0.82,1.93,2.18,3.64,3.29,5.45C-380.69,338.04-380.4,337.95-380.12,337.85z M-379.81,192.09
			c-35.31-6.86-54.33-23.79-57.24-50.76c-2.9-26.9,10.69-50.95,34.56-61.16c23.64-10.11,51-3.53,67.5,16.29
			c8.5,10.22,13.05,22.05,13.37,35.31c0.46,18.57-6.92,33.92-20.57,46.39c6.11,7.83,6.02,16.75,6.14,25.74
			c1.75,0.1,3.05,0.23,4.35,0.23c65.17,0.01,130.34,0.04,195.51-0.07c4.95-0.01,10.03-0.49,14.83-1.64
			c35.22-8.42,56.84-41.32,52.37-79.33c-4.04-34.33-33.4-60.2-68.65-60.23c-81.67-0.07-163.35-0.06-245.02,0.05
			c-5.45,0.01-11.03,0.55-16.32,1.8c-29.74,6.96-50,31.86-52.85,64.48c-2.5,28.72,15.24,58.47,41.74,69.67
			c9.57,4.05,19.54,6.12,30.28,4.9C-379.81,199.72-379.81,196.09-379.81,192.09z M-328.92,137.8c0.13-36.43-29.09-60.25-61.11-53.96
			c-25.02,4.91-42.47,28.79-40.11,54.88c2.23,24.63,23.83,44.94,48.44,45.35c1.69,0.03,4.11-0.64,4.98-1.85
			c7.16-9.99,14.11-12.72,25.7-10.08c1.7,0.39,4.29-0.18,5.55-1.32C-334.51,160.92-329.13,148.42-328.92,137.8z"/>
		<path d="M-371.49,478.95l-0.42-0.45c-0.39-0.42-0.88-0.84-1.36-1.25c-1.14-0.97-2.31-1.97-2.5-3.22
			c-0.52-3.42-0.76-6.94-0.99-10.33c-0.15-2.17-0.3-4.41-0.52-6.6c-1.01-9.9-4.76-19.26-11.47-28.62l-0.07-0.1
			c-12.47-17.39-25.37-35.38-31.89-56.31c-4.16-13.37-7.41-27.25-10.55-40.69c-1.05-4.5-2.1-9-3.19-13.49
			c-1.33-5.51-2.66-11.38-2.98-17.24c-0.42-7.59,3.41-13.43,11.07-16.91c7.92-3.59,15-2.55,19.93,2.94
			c3.77,4.19,7.12,9.53,10.54,16.81c2.86,6.08,5.4,12.43,7.85,18.56c1.37,3.43,2.79,6.98,4.25,10.44c0.54,1.28,1.35,2.5,2.14,3.67
			c0.31,0.46,0.61,0.91,0.9,1.38l0.14-0.05V213.25c-2.94-0.56-5.91-1.02-8.78-1.46c-6.69-1.03-13.01-2-19.01-4.21
			c-28.47-10.51-45.38-31.51-50.27-62.42c-5.42-34.25,12.46-68.44,43.48-83.14c9.75-4.62,20.26-6.87,32.13-6.87
			c0.01,0,0.03,0,0.04,0c20.45,0.01,40.9,0.03,61.35,0.05c60.37,0.06,122.79,0.12,184.19-0.14c17.89-0.09,35.31,6.16,48.99,17.56
			c13.71,11.43,23.17,27.64,26.63,45.65c7.45,38.75-13.18,76.17-49.07,88.97c-8.25,2.94-18.11,4.53-28.52,4.6
			c-47.69,0.29-96.17,0.26-143.06,0.22c-15.49-0.01-30.98-0.02-46.47-0.02h-6.32v54.11c5.66-4.4,12-5.81,18.86-4.21
			c6.57,1.54,11.64,5.56,15.06,11.95c8.47-4.55,16.7-5.54,23.82-2.86c6.3,2.37,11.21,7.52,13.86,14.52c0.9-0.32,1.79-0.66,2.69-1
			c2.27-0.87,4.61-1.77,7.02-2.28c6.36-1.34,12.67-0.03,17.33,3.62c4.2,3.29,6.61,8.16,6.79,13.7
			c1.16,35.32,1.03,72.75-13.94,107.84c-3.63,8.5-7.42,15.38-11.59,21.03c-7.11,9.63-10.68,20.85-11.22,35.29
			c-0.04,1.11-0.03,2.25-0.01,3.35c0.03,2.21,0.06,4.5-0.36,6.69c-0.25,1.29-1.34,2.34-2.4,3.36c-0.44,0.43-0.9,0.87-1.27,1.31
			l-0.39,0.46l-0.38-0.46c-0.37-0.44-0.85-0.9-1.32-1.35c-1.12-1.06-2.28-2.17-2.29-3.4c-0.09-6.9,0.41-13.78,0.87-19.01
			c0.91-10.5,4.44-19.95,10.79-28.88c13.62-19.17,21.42-42.34,23.84-70.84c1-11.71,1.3-23.67,1.59-35.25
			c0.12-4.56,0.23-9.12,0.39-13.67c0.07-2.09-0.12-4.28-0.56-6.32c-1.47-6.77-5.33-9.82-12.25-9.56
			c-7.08,0.25-11.26,3.73-12.42,10.34c-0.05,0.3-0.07,0.62-0.09,0.95c-0.05,0.79-0.1,1.6-0.57,2.18c-1.16,1.43-2.72,3.4-4.15,3.23
			c-1.53-0.16-3.4-2.46-3.62-4c-0.33-2.24-0.28-4.55-0.24-6.79c0.02-1.09,0.05-2.17,0.03-3.25c-0.1-5.64-2.7-10.41-7.12-13.1
			c-4.47-2.72-9.98-2.81-15.12-0.26c-4,1.99-5.9,4.94-5.82,9.02c0.01,0.35,0.04,0.71,0.07,1.07c0.09,1.09,0.19,2.21-0.28,3.11
			c-0.63,1.23-2.24,3.56-3.77,3.58c-1.39,0.01-3.44-2.07-3.85-3.58c-0.42-1.57-0.35-3.27-0.29-4.9c0.03-0.73,0.06-1.46,0.05-2.18
			c-0.18-9.55-5.04-15.4-13.33-16.07c-7.21-0.58-13.36,5.51-14.65,14.48c-0.02,0.15-0.01,0.33,0,0.5c0.02,0.4,0.04,0.86-0.23,1.21
			c-0.82,1.06-1.72,2.07-2.59,3.06c-0.32,0.36-0.63,0.72-0.94,1.08l-0.39,0.45l-0.38-0.47c-0.36-0.45-0.76-0.88-1.16-1.31
			c-0.95-1.03-1.93-2.09-2.42-3.38c-0.47-1.24-0.37-2.65-0.28-4.01c0.04-0.55,0.08-1.09,0.08-1.62c0-6.84,0.01-13.69,0.01-20.53
			c0.02-18.84,0.03-38.32-0.08-57.49c-0.03-5.32-0.58-9.79-1.68-13.66c-1.71-6.02-6.19-8.94-13.3-8.65
			c-6.38,0.25-10.19,3.35-11.64,9.46c-0.83,3.48-1.21,7.37-1.22,12.25c-0.06,37.51-0.06,75.66-0.05,112.54l0,30.51
			c0,0.4,0.03,0.81,0.06,1.21c0.07,0.98,0.14,1.99-0.16,2.92c-0.62,1.94-1.39,3.83-2.75,4.6c-1.21,0.69-3.88-0.16-4.92-1.28
			c-0.6-0.65-1.22-1.3-1.83-1.95c-2.85-3-5.8-6.1-7.62-9.73c-3.26-6.52-6.16-13.34-8.97-19.94c-1.41-3.33-2.88-6.77-4.37-10.13
			c-0.49-1.11-0.97-2.23-1.45-3.36c-1.57-3.7-3.2-7.53-5.41-10.87c-3.35-5.05-8.36-6.55-13.77-4.1c-5.34,2.42-7.33,6.82-5.93,13.08
			c0.78,3.47,1.55,6.95,2.32,10.42c3.25,14.63,6.6,29.77,10.41,44.52c4.98,19.3,14.87,38.27,31.13,59.71
			c11.39,15.02,17.05,31.83,17.31,51.39c0,0.3,0.04,0.62,0.08,0.94c0.1,0.78,0.2,1.59-0.15,2.25c-0.64,1.24-1.48,2.38-2.3,3.47
			c-0.33,0.45-0.66,0.89-0.98,1.34L-371.49,478.95z M-249.63,289.17c6.96,0,10.92,3.31,12.45,10.37c0.46,2.12,0.66,4.39,0.59,6.56
			c-0.16,4.55-0.27,9.11-0.39,13.66c-0.29,11.59-0.6,23.57-1.6,35.31c-2.44,28.69-10.3,52.02-24.02,71.34
			c-6.24,8.78-9.71,18.07-10.61,28.39c-0.45,5.2-0.96,12.05-0.86,18.91c0.01,0.81,1.01,1.77,1.98,2.69c0.35,0.33,0.7,0.67,1.02,1.01
			c0.31-0.33,0.64-0.64,0.96-0.95c0.94-0.91,1.92-1.85,2.11-2.83c0.4-2.09,0.37-4.33,0.34-6.49c-0.01-1.12-0.03-2.27,0.01-3.4
			c0.55-14.66,4.18-26.05,11.41-35.85c4.13-5.59,7.88-12.4,11.48-20.83c14.89-34.91,15.01-72.2,13.86-107.42
			c-0.17-5.25-2.45-9.84-6.41-12.95c-4.42-3.46-10.43-4.71-16.5-3.43c-2.33,0.49-4.63,1.38-6.86,2.23
			c-1.06,0.41-2.11,0.81-3.18,1.18l-0.47,0.16l-0.17-0.46c-2.51-6.96-7.29-12.07-13.45-14.39c-6.97-2.63-15.07-1.57-23.43,3.04
			l-0.45,0.25l-0.24-0.46c-3.28-6.38-8.21-10.38-14.64-11.88c-6.87-1.61-13.2-0.04-18.81,4.66l-0.82,0.69v-57.23h7.32
			c15.49,0,30.98,0.01,46.47,0.02c46.89,0.04,95.37,0.07,143.05-0.22c10.3-0.06,20.05-1.63,28.19-4.54
			c35.41-12.64,55.78-49.58,48.42-87.84c-7.09-36.9-37.82-62.58-74.63-62.4c-61.4,0.26-123.82,0.2-184.19,0.14
			c-20.45-0.02-40.9-0.04-61.34-0.05c-0.01,0-0.03,0-0.04,0c-11.72,0-22.09,2.22-31.7,6.77c-30.62,14.51-48.27,48.27-42.92,82.08
			c4.83,30.53,21.53,51.27,49.63,61.64c5.91,2.18,12.18,3.14,18.82,4.16c3.02,0.46,6.13,0.94,9.22,1.55l0.4,0.08v125.79l-1.58,0.51
			l-0.21-0.34c-0.35-0.57-0.72-1.12-1.09-1.68c-0.81-1.22-1.65-2.47-2.23-3.84c-1.46-3.47-2.88-7.02-4.25-10.46
			c-2.45-6.12-4.98-12.46-7.83-18.51c-3.38-7.19-6.68-12.45-10.38-16.56c-4.62-5.14-11.29-6.1-18.78-2.7
			c-7.25,3.29-10.88,8.81-10.49,15.95c0.32,5.78,1.64,11.6,2.96,17.06c1.09,4.49,2.14,9,3.19,13.5
			c3.13,13.41,6.38,27.29,10.53,40.62c6.47,20.78,19.32,38.7,31.75,56.03l0.07,0.1c6.82,9.5,10.63,19.02,11.66,29.1
			c0.23,2.21,0.38,4.46,0.52,6.63c0.23,3.38,0.46,6.87,0.98,10.25c0.13,0.88,1.17,1.76,2.16,2.61c0.34,0.29,0.69,0.59,1.02,0.9
			c0.21-0.29,0.43-0.59,0.65-0.88c0.79-1.07,1.61-2.17,2.21-3.33c0.2-0.39,0.12-1.05,0.04-1.68c-0.04-0.36-0.09-0.71-0.09-1.05
			c-0.25-19.34-5.84-35.96-17.1-50.8c-16.34-21.54-26.29-40.63-31.3-60.06c-3.81-14.77-7.17-29.91-10.41-44.55
			c-0.77-3.47-1.54-6.95-2.32-10.42c-1.52-6.78,0.67-11.56,6.5-14.2c5.9-2.67,11.37-1.05,15.01,4.46c2.26,3.41,3.9,7.28,5.49,11.03
			c0.48,1.12,0.95,2.24,1.44,3.34c1.49,3.37,2.96,6.82,4.37,10.15c2.8,6.59,5.69,13.4,8.94,19.89c1.75,3.5,4.65,6.54,7.45,9.49
			c0.62,0.65,1.24,1.3,1.84,1.96c0.78,0.84,2.99,1.5,3.69,1.09c1.21-0.69,1.94-2.95,2.29-4.04c0.24-0.75,0.18-1.62,0.12-2.54
			c-0.03-0.43-0.06-0.86-0.06-1.28l0-30.51c-0.01-36.89-0.01-75.03,0.05-112.54c0.01-4.96,0.41-8.92,1.25-12.47
			c1.55-6.51,5.78-9.95,12.57-10.22c7.64-0.31,12.45,2.85,14.3,9.38c1.12,3.96,1.69,8.51,1.72,13.93
			c0.11,19.16,0.09,38.65,0.08,57.49c-0.01,6.84-0.01,13.69-0.01,20.53c0,0.55-0.04,1.12-0.08,1.69c-0.09,1.31-0.18,2.55,0.21,3.59
			c0.42,1.1,1.29,2.05,2.22,3.05c0.28,0.3,0.56,0.6,0.82,0.91c0.19-0.21,0.38-0.43,0.56-0.64c0.86-0.97,1.74-1.98,2.55-3.01
			c0.04-0.07,0.03-0.37,0.02-0.54c-0.01-0.23-0.02-0.46,0.01-0.69c1.37-9.51,7.99-15.97,15.72-15.33
			c8.73,0.7,14.06,7.08,14.25,17.05c0.01,0.74-0.02,1.49-0.05,2.24c-0.07,1.63-0.13,3.17,0.25,4.6c0.31,1.18,1.99,2.84,2.86,2.84
			c0,0,0.01,0,0.01,0c0.83-0.01,2.15-1.58,2.9-3.04c0.34-0.65,0.25-1.63,0.17-2.57c-0.03-0.38-0.06-0.77-0.07-1.13
			c-0.09-4.45,2.06-7.79,6.37-9.94c5.45-2.71,11.31-2.6,16.08,0.3c4.72,2.87,7.49,7.95,7.6,13.94c0.02,1.09,0,2.19-0.03,3.29
			c-0.05,2.2-0.09,4.47,0.23,6.62c0.18,1.2,1.79,3.05,2.74,3.15c0.88,0.09,2.43-1.83,3.27-2.87c0.27-0.33,0.31-0.99,0.35-1.62
			c0.02-0.36,0.05-0.72,0.1-1.06c1.24-7.04,5.86-10.91,13.37-11.17C-250.16,289.17-249.89,289.17-249.63,289.17z M-251.93,204.63
			c-17.15,0-34.21,0-51.09-0.01l-28.68,0c-0.88,0-1.74-0.06-2.74-0.13c-0.5-0.03-1.04-0.07-1.63-0.1l-0.47-0.02l-0.02-1.37
			c-0.12-8.8-0.22-17.11-6.02-24.54l-0.28-0.36l0.34-0.31c13.98-12.77,20.84-28.25,20.41-46.01c-0.32-13.04-4.78-24.81-13.26-35
			c-16.44-19.75-43.33-26.25-66.92-16.15c-23.69,10.13-37.14,33.94-34.26,60.65c2.87,26.62,21.99,43.56,56.84,50.33l0.4,0.08v12.52
			l-0.44,0.05c-9.99,1.14-19.98-0.48-30.53-4.94c-26.48-11.19-44.55-41.36-42.04-70.17c2.88-33.03,23.28-57.9,53.23-64.92
			c5.09-1.19,10.62-1.8,16.44-1.81c78-0.11,160.43-0.12,245.02-0.05c35.35,0.03,65.08,26.11,69.15,60.67
			c4.54,38.52-17.15,71.36-52.75,79.87c-4.55,1.09-9.58,1.64-14.95,1.65C-174.62,204.62-213.52,204.63-251.93,204.63z
			 M-335.55,203.42c0.42,0.02,0.81,0.05,1.18,0.08c0.98,0.07,1.83,0.12,2.67,0.12l28.68,0c54.68,0.01,111.22,0.02,166.83-0.07
			c5.29-0.01,10.25-0.56,14.72-1.63c35.08-8.39,56.46-40.79,51.99-78.78c-4.01-34.06-33.31-59.76-68.16-59.79
			c-84.59-0.07-167.02-0.05-245.02,0.05c-5.74,0.01-11.19,0.61-16.21,1.78c-29.52,6.91-49.62,31.45-52.46,64.03
			c-2.48,28.4,15.34,58.13,41.43,69.16c10.23,4.32,19.91,5.93,29.58,4.92V192.5c-35.07-6.92-54.33-24.12-57.23-51.12
			c-2.92-27.15,10.76-51.36,34.86-61.67c24-10.27,51.36-3.67,68.08,16.43c8.62,10.37,13.16,22.35,13.49,35.61
			c0.44,17.92-6.42,33.55-20.39,46.46c5.73,7.61,5.84,16.34,5.95,24.78L-335.55,203.42z M-381.61,184.57c-0.04,0-0.07,0-0.1,0
			c-24.73-0.42-46.68-20.97-48.93-45.81c-2.37-26.15,15.42-50.49,40.51-55.42c15.22-2.99,30.62,0.8,42.24,10.4
			c12.43,10.27,19.53,26.32,19.47,44.05v0.01c-0.23,11.66-6.48,24.14-16.71,33.39c-1.34,1.21-4.09,1.87-6,1.43
			c-11.34-2.58-18.17,0.1-25.19,9.89C-377.34,183.95-379.99,184.57-381.61,184.57z M-379.92,83.35c-3.32,0-6.67,0.32-10.01,0.98
			c-24.59,4.83-42.03,28.7-39.7,54.35c2.21,24.35,23.71,44.49,47.95,44.9c1.62,0.03,3.84-0.62,4.57-1.64
			c7.3-10.19,14.4-12.97,26.22-10.28c1.58,0.36,4.01-0.21,5.1-1.2c10.03-9.06,16.15-21.27,16.38-32.66
			c0.06-17.68-6.72-33.05-19.1-43.27C-357.36,87.22-368.43,83.35-379.92,83.35z"/>
	</g>
	<g>
		<path class="st0" d="M-398.73,135.69c0,9.65-0.17,19.31,0.13,28.95c0.07,2.17,1.23,5.09,2.87,6.18c1.3,0.85,4.48,0,6.18-1.1
			c14.51-9.4,28.89-19.01,43.27-28.62c5.49-3.67,5.44-6.86-0.14-10.59c-14.24-9.52-28.47-19.05-42.84-28.35
			c-1.81-1.17-5.07-2.03-6.62-1.17c-1.61,0.9-2.66,4.04-2.73,6.24C-398.91,116.72-398.74,126.21-398.73,135.69z"/>
		<path d="M-381.61,184.57c-0.03,0-0.07,0-0.1,0c-24.73-0.42-46.68-20.97-48.93-45.81c-2.37-26.15,15.42-50.49,40.51-55.42
			c15.22-2.99,30.62,0.8,42.24,10.4c12.43,10.27,19.53,26.32,19.47,44.05v0.01c-0.23,11.66-6.48,24.14-16.71,33.39
			c-1.34,1.21-4.09,1.87-6,1.43c-11.34-2.58-18.17,0.1-25.19,9.89C-377.34,183.95-379.99,184.57-381.61,184.57z M-379.92,83.35
			c-3.32,0-6.67,0.32-10.01,0.98c-24.59,4.83-42.03,28.7-39.7,54.35c2.21,24.35,23.71,44.49,47.95,44.9
			c1.65,0.03,3.84-0.63,4.57-1.64c7.3-10.19,14.4-12.97,26.22-10.28c1.58,0.36,4.01-0.21,5.1-1.2
			c10.03-9.06,16.15-21.27,16.38-32.66c0.06-17.68-6.72-33.05-19.1-43.27C-357.36,87.22-368.43,83.35-379.92,83.35z M-394.23,171.67
			c-0.69,0-1.31-0.13-1.77-0.43c-1.82-1.2-3.03-4.35-3.09-6.58c-0.22-7.09-0.19-14.3-0.15-21.28c0.01-2.56,0.02-5.13,0.02-7.69
			c0-2.39-0.02-4.77-0.03-7.16c-0.04-6.99-0.08-14.21,0.14-21.31c0.07-2.44,1.24-5.69,2.99-6.66c1.83-1.03,5.38,0.05,7.13,1.18
			c13.35,8.64,26.79,17.62,39.79,26.31l3.06,2.04c2.99,2,4.45,3.89,4.45,5.78c0,1.86-1.41,3.7-4.3,5.64
			c-15.31,10.24-29.14,19.46-43.27,28.62C-390.52,170.95-392.58,171.67-394.23,171.67z M-394.24,101.14c-0.56,0-1.05,0.09-1.41,0.29
			c-1.38,0.77-2.41,3.69-2.47,5.82c-0.21,7.08-0.18,14.3-0.14,21.27c0.01,2.39,0.03,4.78,0.03,7.16v0c0,2.56-0.01,5.13-0.02,7.69
			c-0.03,6.97-0.07,14.17,0.15,21.24c0.06,1.99,1.14,4.78,2.65,5.78c1.03,0.68,4.01-0.05,5.63-1.1
			c14.13-9.16,27.95-18.38,43.26-28.62c2.6-1.74,3.86-3.31,3.86-4.81c0-1.53-1.31-3.14-4-4.95l-3.06-2.04
			c-13-8.69-26.43-17.67-39.78-26.3C-390.81,101.76-392.76,101.14-394.24,101.14z"/>
	</g>
	<g>
		<path class="st0" d="M-147.97,164.46c-1.05,0.94-2.23,2.8-3.32,2.75c-1.45-0.07-3.53-1.31-4.11-2.6
			c-2.46-5.45-4.67-11.03-6.55-16.71c-1.22-3.68-2.96-5.16-7.11-5.07c-13.48,0.27-13.48,0.07-18.09,12.75
			c-0.85,2.34-1.7,4.69-2.59,7.02c-0.99,2.6-1.71,6.09-5.6,4.53c-3.8-1.53-2.08-4.67-1.13-7.28c5.64-15.47,11.31-30.93,16.98-46.39
			c0.34-0.94,0.5-2.01,1.07-2.78c1.54-2.11,3.26-4.08,4.9-6.11c1.55,1.93,3.66,3.64,4.55,5.84c6.57,16.36,12.9,32.81,19.3,49.24
			C-149.14,161.02-148.69,162.44-147.97,164.46z M-166.88,135.52c-2.28-5.77-4.27-10.78-6.73-17c-2.31,6.4-4.12,11.43-6.13,17
			C-175.15,135.52-171.44,135.52-166.88,135.52z"/>
		<path d="M-193.61,168.01c-0.58,0-1.22-0.14-1.92-0.42c-3.87-1.55-2.63-4.75-1.72-7.09c0.11-0.28,0.21-0.55,0.31-0.82
			c4.18-11.47,8.38-22.92,12.58-34.38l4.4-12.01c0.1-0.28,0.19-0.58,0.27-0.87c0.21-0.7,0.42-1.43,0.86-2.04
			c1.11-1.52,2.33-2.99,3.51-4.41c0.47-0.57,0.95-1.14,1.41-1.72l0.39-0.48l0.39,0.48c0.48,0.6,1.03,1.19,1.56,1.76
			c1.19,1.28,2.42,2.61,3.06,4.2c5.2,12.94,10.33,26.15,15.29,38.93l4.01,10.31c0.36,0.92,0.68,1.85,1.06,2.96
			c0.2,0.57,0.41,1.19,0.66,1.89l0.11,0.32l-0.25,0.22c-0.3,0.27-0.61,0.62-0.95,0.99c-0.85,0.95-1.78,1.92-2.73,1.88
			c-1.53-0.08-3.85-1.36-4.54-2.9c-2.55-5.66-4.76-11.29-6.57-16.76c-1.2-3.61-2.84-4.8-6.62-4.73l-0.63,0.01
			c-12.58,0.25-12.58,0.25-17,12.41l-0.32,0.89c-0.74,2.05-1.49,4.1-2.27,6.14c-0.1,0.27-0.21,0.56-0.31,0.84
			c-0.58,1.62-1.24,3.45-2.74,4.13C-192.72,167.92-193.15,168.01-193.61,168.01z M-173.52,105.35c-0.34,0.42-0.69,0.84-1.03,1.25
			c-1.17,1.41-2.38,2.87-3.47,4.37c-0.34,0.46-0.52,1.07-0.71,1.72c-0.09,0.32-0.18,0.63-0.29,0.94l-4.4,12.01
			c-4.2,11.46-8.4,22.91-12.58,34.38c-0.1,0.27-0.21,0.55-0.32,0.84c-1.11,2.87-1.59,4.7,1.17,5.8c1,0.4,1.79,0.46,2.42,0.17
			c1.11-0.5,1.67-2.05,2.21-3.55c0.11-0.29,0.21-0.58,0.32-0.86c0.78-2.03,1.52-4.08,2.26-6.12l0.32-0.89
			c4.61-12.69,4.78-12.81,17.92-13.07l0.63-0.01c4.2-0.07,6.25,1.38,7.59,5.42c1.8,5.43,4,11.04,6.54,16.66
			c0.49,1.08,2.34,2.25,3.68,2.31c0.5,0.03,1.3-0.85,1.93-1.55c0.26-0.29,0.52-0.58,0.78-0.84c-0.2-0.57-0.38-1.1-0.55-1.59
			c-0.38-1.09-0.69-2.01-1.05-2.92l-4.01-10.31c-4.96-12.78-10.09-25.99-15.29-38.92c-0.57-1.42-1.69-2.62-2.87-3.89
			C-172.72,106.26-173.13,105.81-173.52,105.35z M-166.14,136.02h-14.32l6.83-18.91L-166.14,136.02z M-179.04,135.02h11.42
			l-5.98-15.09L-179.04,135.02z"/>
	</g>
	<g>
		<path class="st0" d="M-289.95,137.82c0,8.46,0,16.09,0,23.72c0,2.73,0.13,5.93-3.62,5.85c-3.69-0.08-3.49-3.27-3.49-6
			c0.01-16.82,0.1-33.63-0.07-50.45c-0.05-4.44,1.39-6.48,6.01-6.29c5.48,0.23,10.99-0.08,16.47,0.16
			c8.58,0.37,15.03,7.13,15.1,15.51c0.08,8.97-6.86,17.06-15.22,17.46C-279.56,138.01-284.37,137.82-289.95,137.82z M-289.92,111.88
			c0,5.84-0.14,10.97,0.13,16.07c0.05,0.93,1.71,2.47,2.7,2.53c4.14,0.24,8.33,0.32,12.45-0.11c4.66-0.49,8.1-5.59,7.69-10.66
			c-0.36-4.58-3.7-7.66-8.71-7.81C-280.14,111.79-284.62,111.88-289.92,111.88z"/>
		<path d="M-293.44,167.9c-0.05,0-0.09,0-0.14,0c-4.01-0.09-3.99-3.56-3.98-6.1l0-0.39c0-3.88,0.01-7.75,0.02-11.63
			c0.02-12.72,0.05-25.88-0.09-38.81c-0.03-2.63,0.48-4.36,1.58-5.43c1.04-1.01,2.66-1.46,4.94-1.36c2.71,0.11,5.48,0.09,8.16,0.08
			c2.73-0.02,5.54-0.04,8.31,0.08c8.81,0.38,15.51,7.25,15.58,16c0.08,9.32-7.11,17.55-15.7,17.96c-3.27,0.16-6.57,0.12-10.06,0.08
			c-1.5-0.02-3.04-0.03-4.64-0.04l0,6.51c0,5.77,0,11.24,0,16.71l0,0.25c0,1.84,0.01,3.93-1.23,5.15
			C-291.32,167.57-292.25,167.9-293.44,167.9z M-291.69,105.15c-1.7,0-2.9,0.36-3.66,1.1c-0.9,0.87-1.3,2.36-1.28,4.7
			c0.13,12.94,0.11,26.1,0.09,38.82c-0.01,3.88-0.01,7.75-0.02,11.63l0,0.4c-0.01,3.13,0.18,5.04,3,5.1c0.99,0.02,1.7-0.2,2.19-0.67
			c0.93-0.92,0.93-2.7,0.93-4.43l0-0.25c-0.01-5.47,0-10.93,0-16.71l0-7.51h0.5c1.79,0,3.5,0.02,5.16,0.04
			c3.48,0.04,6.76,0.08,10-0.08c8.07-0.39,14.82-8.16,14.74-16.96c-0.07-8.21-6.36-14.66-14.62-15.01c-2.75-0.12-5.55-0.1-8.26-0.08
			c-2.69,0.02-5.47,0.04-8.21-0.08C-291.33,105.15-291.52,105.15-291.69,105.15z M-281.01,131.18c-2.23,0-4.32-0.1-6.11-0.2
			c-1.24-0.07-3.11-1.84-3.17-3c-0.2-3.78-0.17-7.6-0.15-11.65c0.01-1.44,0.02-2.92,0.02-4.45v-0.5h0.5c1.68,0,3.28-0.01,4.82-0.02
			c3.28-0.02,6.38-0.04,9.45,0.05c5.2,0.15,8.8,3.39,9.19,8.27c0.44,5.47-3.37,10.7-8.14,11.2
			C-276.78,131.1-278.96,131.18-281.01,131.18z M-289.42,112.38c0,1.35-0.01,2.67-0.02,3.95c-0.03,4.03-0.05,7.84,0.15,11.59
			c0.03,0.67,1.49,2.01,2.22,2.06c5.05,0.29,8.87,0.26,12.36-0.11c4.25-0.45,7.64-5.18,7.25-10.12c-0.35-4.4-3.5-7.21-8.22-7.35
			c-3.04-0.09-6.14-0.07-9.41-0.05C-286.48,112.37-287.92,112.38-289.42,112.38z"/>
	</g>
	<g>
		<path class="st0" d="M-121.69,129.38c5.01-7.75,9.35-14.84,14.15-21.61c1.14-1.6,4.34-3.44,5.64-2.9
			c3.38,1.42,1.94,4.31,0.42,6.67c-4.86,7.55-9.86,15.02-14.53,22.69c-1.22,1.99-1.95,4.57-2.04,6.91
			c-0.26,6.98-0.13,13.98-0.08,20.97c0.02,2.75-0.51,5.57-3.72,5.11c-1.38-0.2-3.25-3.14-3.35-4.93c-0.4-6.97,0.01-13.98-0.28-20.96
			c-0.1-2.52-0.88-5.25-2.13-7.44c-4.38-7.65-9.08-15.11-13.7-22.61c-1.39-2.27-2.63-4.59,0.29-6.46c3.07-1.97,4.55,0.52,5.87,2.65
			C-130.76,114.5-126.46,121.6-121.69,129.38z"/>
		<path d="M-121.19,167.77c-0.23,0-0.47-0.02-0.73-0.05c-1.65-0.24-3.66-3.42-3.78-5.39c-0.21-3.75-0.2-7.56-0.18-11.25
			c0.01-3.19,0.03-6.49-0.1-9.72c-0.1-2.47-0.85-5.1-2.06-7.21c-3.45-6.03-7.17-12.04-10.77-17.86c-0.98-1.58-1.95-3.16-2.93-4.74
			c-1.21-1.96-3.03-4.92,0.45-7.15c1.07-0.69,2.08-0.93,3-0.72c1.6,0.36,2.61,1.99,3.5,3.42l0.07,0.11
			c3.15,5.06,6.25,10.12,9.52,15.49l3.51,5.75c1.21-1.88,2.39-3.72,3.54-5.53c3.44-5.4,6.7-10.5,10.19-15.43
			c1.17-1.65,4.57-3.77,6.24-3.07c1.2,0.5,1.95,1.23,2.24,2.16c0.51,1.64-0.52,3.57-1.59,5.24c-1.46,2.26-2.92,4.52-4.39,6.77
			c-3.37,5.18-6.86,10.54-10.14,15.91c-1.14,1.87-1.88,4.37-1.96,6.67c-0.22,5.8-0.16,11.72-0.11,17.45l0.03,3.5
			c0.01,1.57-0.12,3.78-1.43,4.93C-119.62,167.53-120.34,167.77-121.19,167.77z M-138.95,104.6c-0.54,0-1.13,0.21-1.8,0.64
			c-2.46,1.58-1.61,3.39-0.14,5.78c0.97,1.58,1.95,3.16,2.93,4.74c3.6,5.82,7.32,11.84,10.78,17.89c1.29,2.25,2.09,5.04,2.2,7.67
			c0.14,3.26,0.12,6.57,0.1,9.77c-0.02,3.67-0.04,7.47,0.18,11.18c0.09,1.64,1.84,4.3,2.92,4.46c0.89,0.13,1.57-0.02,2.05-0.44
			c0.75-0.66,1.11-2.02,1.09-4.17l-0.03-3.5c-0.05-5.73-0.11-11.67,0.11-17.49c0.09-2.47,0.88-5.14,2.11-7.15
			c3.28-5.38,6.77-10.75,10.15-15.94c1.47-2.25,2.93-4.5,4.39-6.77c0.95-1.48,1.87-3.15,1.48-4.4c-0.2-0.65-0.75-1.15-1.67-1.53
			c-0.99-0.42-3.95,1.19-5.04,2.73c-3.48,4.91-6.73,10-10.16,15.39c-1.29,2.02-2.61,4.09-3.97,6.2l-0.43,0.67l-4.34-7.1
			c-3.28-5.36-6.37-10.43-9.52-15.48l-0.07-0.11c-0.83-1.33-1.68-2.7-2.88-2.97C-138.65,104.62-138.8,104.6-138.95,104.6z"/>
	</g>
	<g>
		<path class="st0" d="M-238.24,160.24c7.11,0,13.58,0,20.04,0c1.33,0,2.91-0.4,3.94,0.17c1.52,0.86,2.65,2.41,3.95,3.67
			c-1.21,1.17-2.39,3.31-3.64,3.35c-9.32,0.28-18.65,0.35-27.96-0.08c-1.32-0.06-3.57-3.16-3.59-4.89
			c-0.27-17.16-0.26-34.32,0-51.48c0.03-1.67,2.32-3.31,3.56-4.96c1.23,1.82,3.49,3.62,3.52,5.47c0.3,14.16,0.16,28.32,0.16,42.48
			C-238.24,155.81-238.24,157.63-238.24,160.24z"/>
		<path d="M-227.91,168.18c-4.99,0-9.59-0.1-14.02-0.31c-1.68-0.08-4.04-3.5-4.07-5.38c-0.26-16.95-0.26-34.27,0-51.49
			c0.02-1.34,1.19-2.55,2.31-3.73c0.48-0.5,0.98-1.02,1.35-1.52l0.42-0.56l0.39,0.58c0.37,0.55,0.86,1.13,1.34,1.68
			c1.1,1.29,2.24,2.62,2.27,4.06c0.23,10.81,0.2,21.81,0.18,32.44c-0.01,3.35-0.01,6.7-0.01,10.05v5.75l4.98,0
			c5.03,0,9.79,0,14.56,0c0,0,0,0,0.01,0c0.37,0,0.77-0.03,1.16-0.07c1.06-0.09,2.16-0.18,3.01,0.3c1.14,0.64,2.05,1.63,2.94,2.59
			c0.37,0.4,0.73,0.79,1.12,1.16l0.37,0.36l-0.37,0.36c-0.36,0.35-0.74,0.81-1.1,1.26c-0.88,1.08-1.79,2.2-2.86,2.23
			C-218.97,168.1-223.58,168.18-227.91,168.18z M-241.95,106.87c-0.32,0.37-0.67,0.73-1.01,1.09c-0.99,1.04-2.02,2.11-2.03,3.05
			c-0.27,17.21-0.27,34.52,0,51.46c0.03,1.58,2.15,4.35,3.12,4.4c8.24,0.38,17.11,0.41,27.92,0.08c0.62-0.02,1.42-1,2.12-1.86
			c0.27-0.33,0.55-0.67,0.83-0.98c-0.27-0.28-0.54-0.56-0.8-0.85c-0.87-0.94-1.7-1.83-2.7-2.4c-0.59-0.33-1.53-0.25-2.44-0.18
			c-0.42,0.04-0.84,0.07-1.24,0.07c0,0,0,0-0.01,0c-4.76-0.01-9.53-0.01-14.55,0l-5.99,0V154c0-3.35,0.01-6.7,0.01-10.05
			c0.02-10.63,0.05-21.62-0.18-32.42c-0.02-1.08-1.04-2.27-2.03-3.43C-241.28,107.7-241.63,107.29-241.95,106.87z"/>
	</g>
	<g>
		<path class="st0" d="M-398.73,135.69c-0.01-9.49-0.17-18.98,0.12-28.45c0.07-2.2,1.12-5.34,2.73-6.24
			c1.54-0.86,4.8-0.01,6.62,1.17c14.38,9.3,28.61,18.84,42.84,28.35c5.58,3.73,5.64,6.91,0.14,10.59
			c-14.37,9.61-28.76,19.21-43.27,28.62c-1.7,1.1-4.88,1.95-6.18,1.1c-1.64-1.08-2.8-4.01-2.87-6.18
			C-398.9,155-398.73,145.35-398.73,135.69z M-390.83,109.74c0,17.75,0,34.66,0,52.23c13.3-8.84,25.95-17.26,39.27-26.12
			C-364.9,126.98-377.55,118.57-390.83,109.74z"/>
		<path d="M-394.23,171.67c-0.69,0-1.31-0.13-1.77-0.43c-1.82-1.2-3.03-4.35-3.09-6.58c-0.22-7.02-0.19-14.16-0.16-21.07
			c0.01-2.63,0.02-5.27,0.02-7.9l0,0c0-2.46-0.01-4.92-0.03-7.38c-0.03-6.91-0.07-14.06,0.14-21.09c0.07-2.44,1.24-5.69,2.99-6.66
			c1.83-1.03,5.38,0.05,7.13,1.18c13.35,8.64,26.79,17.62,39.79,26.31l3.06,2.04c2.99,2,4.45,3.89,4.45,5.78
			c0,1.86-1.41,3.7-4.3,5.64c-15.31,10.24-29.14,19.46-43.27,28.62C-390.52,170.95-392.58,171.67-394.23,171.67z M-394.24,101.14
			c-0.56,0-1.05,0.09-1.41,0.29c-1.38,0.77-2.41,3.69-2.47,5.82c-0.21,7.01-0.18,14.15-0.14,21.05c0.01,2.46,0.02,4.92,0.03,7.38
			c0,2.63-0.01,5.27-0.02,7.9c-0.03,6.9-0.06,14.03,0.16,21.03c0.06,1.99,1.14,4.78,2.65,5.78c1.03,0.68,4.01-0.05,5.63-1.1
			c14.13-9.16,27.95-18.38,43.26-28.62c2.6-1.74,3.86-3.31,3.86-4.81c0-1.53-1.31-3.14-4-4.95l-3.06-2.04
			c-13-8.69-26.43-17.67-39.78-26.3C-390.81,101.76-392.76,101.14-394.24,101.14z M-391.33,162.9v-54.09l40.67,27.04L-391.33,162.9z
			 M-390.33,110.68v50.36l37.87-25.19L-390.33,110.68z"/>
	</g>
	<g>
		<path class="st0" d="M-390.83,109.74c13.27,8.83,25.92,17.23,39.27,26.11c-13.32,8.86-25.98,17.28-39.27,26.12
			C-390.83,144.41-390.83,127.5-390.83,109.74z"/>
		<path d="M-391.33,162.9v-54.09l40.67,27.04L-391.33,162.9z M-390.33,110.68v50.36l37.87-25.19L-390.33,110.68z"/>
	</g>
</g>
<path class="st1" d="M404.28,328.96h-311c-6.6,0-12-5.4-12-12v-124c0-6.6,5.4-12,12-12h311c6.6,0,12,5.4,12,12v124
	C416.28,323.56,410.88,328.96,404.28,328.96z"/>
<text transform="matrix(1 0 0 1 96.4346 294.1421)" class="st1 st2 st3 st4">PLAY</text>
</svg>
