<?xml version="1.0" encoding="utf-8"?>
<!-- Generator: Adobe Illustrator 24.3.0, SVG Export Plug-In . SVG Version: 6.00 Build 0)  -->
<svg version="1.1"
	 id="Layer_1" xmlns:cc="http://web.resource.org/cc/" xmlns:dc="http://purl.org/dc/elements/1.1/" xmlns:inkscape="http://www.inkscape.org/namespaces/inkscape" xmlns:ns1="http://sozi.baierouge.fr" xmlns:rdf="http://www.w3.org/1999/02/22-rdf-syntax-ns#" xmlns:sodipodi="http://sodipodi.sourceforge.net/DTD/sodipodi-0.dtd"
	 xmlns="http://www.w3.org/2000/svg" xmlns:xlink="http://www.w3.org/1999/xlink" x="0px" y="0px" viewBox="0 0 30 30"
	 style="enable-background:new 0 0 30 30;" xml:space="preserve">
<style type="text/css">
	.st0{fill:#010101;}
	.st1{fill:#193A3F;}
	.st2{fill:#29777A;}
	.st3{fill:#3B959D;}
	.st4{fill:#254C54;}
	.st5{fill:#281D30;}
	.st6{fill:#774D88;}
</style>
<g>
	<path class="st0" d="M15.2,18.1c1.6,1.4,3.2,2.6,4.9,3.9c0.5,0.4,1,0.7,1.5,1.1c0.2,0.1,0.5,0.4,0.8,0.4c0.2,0,0.6,0.1,0.8-0.1
		c0.3-0.3,0.3-0.9,0.4-1.3c0.3-1.1,0.6-2.4,0.6-3.5c0-0.4,0.1-1-0.1-1.4c-0.1-0.2-0.4-0.3-0.7-0.5c-0.5-0.3-1-0.6-1.4-0.9
		c-1.6-1.1-3.2-2.2-4.7-3.5l-1.2-0.9c-0.1-0.1-0.4-0.3-0.5-0.4c-0.1-0.1,0-0.3,0-0.5c0-0.4,0-0.8,0-1.2c0.1-1.2,0.1-2.5,0-3.7
		c-0.1-1.4-0.6-2.8-1.7-3.6c-0.6-0.4-1.2-0.7-1.9-1C11.1,0.5,10,0.1,8.8,0.3C7.8,0.5,6.5,1.4,6.1,2.4C5.9,3.2,5.9,4,5.8,4.7
		C5.7,5.8,5.7,7,6.2,8c0.5,1.2,1.5,2.2,2.3,3.1c0.5,0.6,1,1.3,1.6,1.9c0.2,0.2,0.6,0.6,0.7,0.8c0.1,0.2-0.1,0.6-0.1,0.8
		c-0.1,0.6-0.3,1.2-0.4,1.8c-0.6,2-1.1,4-1.6,6c-0.2,0.8-0.6,1.9-0.2,2.8c0.2,0.6,0.8,1.2,1.3,1.6c0.5,0.4,0.9,0.8,1.4,1.2
		c0.5,0.4,0.9,0.7,1.3,1.1c0.1,0.1,0.3,0.5,0.5,0.6c0.2,0,0.9,0.1,1,0c0.1-0.1,0.1-0.6,0.1-0.7c0.1-0.6,0.1-1.2,0.2-1.7
		C14.5,24.2,15,21.1,15.2,18.1L15.2,18.1z"/>
	<path class="st1" d="M9.1,0.7C9.1,0.7,9.1,0.7,9.1,0.7C9.2,0.7,9.1,0.7,9.1,0.7z"/>
	<path class="st2" d="M9.2,0.7c0,0,0.1,0,0.1,0C9.3,0.7,9.2,0.7,9.2,0.7z"/>
	<path class="st3" d="M6.5,2.6C6.8,2.7,6.9,2.9,7,3.1c0.2,0.3,0.6,0.6,0.7,1h0.1C8.1,3.7,8.5,3.3,9,3.1c0.3-0.2,0.6-0.3,0.9-0.4
		c0.3-0.1,0.6-0.2,0.9-0.2c0.1,0,0.3-0.1,0.4,0c0.2,0.2,0.4,0.8,0.4,1.1c0.3,1.1,0.4,2.2,0.5,3.3c0,0.3-0.1,0.7,0,1
		c0.1,0.3,0.5,0.5,0.7,0.7c0.5,0.4,1,0.8,1.6,1.2c0.2,0.2,0.5,0.3,0.7,0.5c0.1-0.2,0.1-0.6,0.1-0.8l0-1.6c0-1.9,0.2-3.9-1.2-5.4
		c-0.3-0.3-0.5-0.5-0.9-0.7c-0.4-0.2-0.8-0.4-1.2-0.6c-0.7-0.3-1.5-0.7-2.4-0.7C8.7,0.7,8.1,1,7.6,1.4C7.1,1.7,6.6,2.1,6.5,2.6
		L6.5,2.6z"/>
	<path class="st2" d="M9.5,0.7C9.6,0.7,9.6,0.7,9.5,0.7C9.6,0.7,9.6,0.7,9.5,0.7z"/>
	<path class="st4" d="M9.6,0.7C9.7,0.7,9.7,0.7,9.6,0.7C9.7,0.7,9.7,0.7,9.6,0.7z"/>
	<path class="st5" d="M9.8,0.7C9.7,0.7,9.8,0.7,9.8,0.7C9.8,0.7,9.8,0.7,9.8,0.7 M8.9,0.7C8.9,0.7,8.9,0.7,8.9,0.7
		C8.9,0.7,8.9,0.7,8.9,0.7z"/>
	<path class="st2" d="M9,0.7C9,0.7,9,0.7,9,0.7C9,0.7,9,0.7,9,0.7z"/>
	<path class="st4" d="M9.9,0.7C9.9,0.7,9.9,0.7,9.9,0.7C9.9,0.7,9.9,0.7,9.9,0.7z"/>
	<path class="st5" d="M10,0.7C10,0.7,10,0.7,10,0.7C10,0.7,10,0.7,10,0.7z"/>
	<path class="st1" d="M8.7,0.7C8.8,0.7,8.8,0.8,8.7,0.7C8.8,0.7,8.8,0.7,8.7,0.7z"/>
	<path class="st2" d="M8.8,0.7L8.8,0.7L8.8,0.7z"/>
	<path class="st1" d="M10.1,0.7C10.1,0.8,10.1,0.8,10.1,0.7C10.1,0.7,10.1,0.7,10.1,0.7z"/>
	<path class="st5" d="M10.1,0.7C10.1,0.8,10.1,0.8,10.1,0.7C10.2,0.7,10.1,0.7,10.1,0.7z"/>
	<path class="st4" d="M8.7,0.8C8.7,0.8,8.7,0.8,8.7,0.8C8.7,0.8,8.7,0.8,8.7,0.8z"/>
	<path class="st2" d="M8.7,0.8L8.7,0.8L8.7,0.8 M10.2,0.8L10.2,0.8L10.2,0.8z"/>
	<path class="st1" d="M10.2,0.8C10.2,0.8,10.3,0.8,10.2,0.8C10.3,0.8,10.3,0.8,10.2,0.8z"/>
	<path class="st4" d="M8.6,0.8C8.6,0.8,8.6,0.8,8.6,0.8C8.6,0.8,8.6,0.8,8.6,0.8z"/>
	<path class="st2" d="M8.6,0.8L8.6,0.8L8.6,0.8 M10.3,0.8L10.3,0.8L10.3,0.8z"/>
	<path class="st1" d="M10.4,0.8C10.3,0.8,10.4,0.8,10.4,0.8C10.4,0.8,10.4,0.8,10.4,0.8z"/>
	<path class="st4" d="M8.5,0.8C8.5,0.8,8.5,0.8,8.5,0.8C8.5,0.8,8.5,0.8,8.5,0.8z"/>
	<path class="st2" d="M8.5,0.8L8.5,0.8L8.5,0.8z"/>
	<path class="st1" d="M10.4,0.8C10.4,0.8,10.5,0.8,10.4,0.8C10.5,0.8,10.4,0.8,10.4,0.8z"/>
	<path class="st4" d="M8.4,0.9C8.4,0.9,8.4,0.9,8.4,0.9C8.5,0.9,8.4,0.9,8.4,0.9z"/>
	<path class="st1" d="M10.5,0.9C10.6,0.9,10.6,0.9,10.5,0.9C10.6,0.9,10.6,0.9,10.5,0.9z"/>
	<path class="st2" d="M8.4,0.9C8.3,0.9,8.4,0.9,8.4,0.9C8.4,0.9,8.4,0.9,8.4,0.9z"/>
	<path class="st1" d="M10.6,0.9C10.7,0.9,10.7,0.9,10.6,0.9C10.7,0.9,10.7,0.9,10.6,0.9z"/>
	<path class="st5" d="M8.2,0.9L8.2,0.9L8.2,0.9z"/>
	<path class="st4" d="M8.3,0.9L8.3,0.9L8.3,0.9z"/>
	<path class="st2" d="M8.3,0.9L8.3,0.9L8.3,0.9z"/>
	<path class="st4" d="M10.7,0.9C10.7,0.9,10.8,0.9,10.7,0.9C10.8,0.9,10.7,0.9,10.7,0.9z"/>
	<path class="st5" d="M8.2,0.9L8.2,0.9L8.2,0.9z"/>
	<path class="st4" d="M8.2,0.9L8.2,0.9L8.2,0.9z"/>
	<path class="st2" d="M8.2,0.9L8.2,0.9L8.2,0.9 M10.8,0.9L10.8,0.9L10.8,0.9z"/>
	<path class="st4" d="M10.8,1C10.8,1,10.8,1,10.8,1C10.9,1,10.8,1,10.8,1z"/>
	<path class="st5" d="M8.1,1L8.1,1L8.1,1z"/>
	<path class="st4" d="M8.1,1L8.1,1L8.1,1z"/>
	<path class="st2" d="M8.2,1L8.2,1L8.2,1z"/>
	<path class="st4" d="M10.9,1C10.9,1,10.9,1,10.9,1C10.9,1,10.9,1,10.9,1 M8.1,1L8.1,1L8.1,1z"/>
	<path class="st2" d="M8.1,1L8.1,1L8.1,1z"/>
	<path class="st4" d="M11,1C11,1,11,1,11,1C11,1,11,1,11,1z"/>
	<path class="st2" d="M8,1.1C8,1.1,8.1,1.1,8,1.1C8.1,1,8,1.1,8,1.1z"/>
	<path class="st4" d="M11,1.1C11,1.1,11.1,1.1,11,1.1C11.1,1,11,1.1,11,1.1z"/>
	<path class="st1" d="M11.1,1L11.1,1L11.1,1 M8,1.1L8,1.1L8,1.1z"/>
	<path class="st2" d="M8,1.1L8,1.1L8,1.1z"/>
	<path class="st4" d="M11.1,1.1C11.1,1.1,11.2,1.1,11.1,1.1C11.2,1.1,11.1,1.1,11.1,1.1z"/>
	<path class="st2" d="M7.9,1.1L7.9,1.1L7.9,1.1z"/>
	<path class="st4" d="M11.2,1.1C11.2,1.1,11.2,1.1,11.2,1.1C11.2,1.1,11.2,1.1,11.2,1.1z"/>
	<path class="st1" d="M11.2,1.1L11.2,1.1L11.2,1.1z"/>
	<path class="st2" d="M7.9,1.2C7.9,1.2,7.9,1.2,7.9,1.2C7.9,1.1,7.9,1.1,7.9,1.2z"/>
	<path class="st4" d="M11.3,1.2C11.3,1.2,11.3,1.2,11.3,1.2C11.3,1.1,11.3,1.1,11.3,1.2z"/>
	<path class="st2" d="M7.8,1.2L7.8,1.2L7.8,1.2z"/>
	<path class="st4" d="M11.4,1.2C11.4,1.2,11.4,1.2,11.4,1.2C11.4,1.2,11.4,1.2,11.4,1.2z"/>
	<path class="st2" d="M7.8,1.2C7.8,1.2,7.8,1.2,7.8,1.2C7.8,1.2,7.8,1.2,7.8,1.2 M11.4,1.2C11.4,1.2,11.4,1.2,11.4,1.2
		C11.5,1.2,11.4,1.2,11.4,1.2 M7.7,1.2L7.7,1.2L7.7,1.2 M11.5,1.2c0.1,0,0.1,0.1,0.2,0.1C11.6,1.3,11.5,1.2,11.5,1.2z"/>
	<path class="st1" d="M11.5,1.2L11.5,1.2L11.5,1.2z"/>
	<path class="st2" d="M7.7,1.3C7.7,1.3,7.7,1.3,7.7,1.3C7.7,1.3,7.7,1.3,7.7,1.3 M11.6,1.3C11.6,1.3,11.7,1.3,11.6,1.3
		C11.7,1.3,11.6,1.3,11.6,1.3 M7.6,1.3L7.6,1.3L7.6,1.3 M11.7,1.3C11.7,1.4,11.7,1.4,11.7,1.3C11.7,1.3,11.7,1.3,11.7,1.3 M7.6,1.4
		C7.6,1.4,7.6,1.4,7.6,1.4C7.6,1.4,7.6,1.4,7.6,1.4 M11.8,1.4c0,0,0.1,0,0.1,0.1C11.8,1.4,11.8,1.4,11.8,1.4z"/>
	<path class="st5" d="M11.8,1.4L11.8,1.4L11.8,1.4z"/>
	<path class="st1" d="M11.9,1.4L11.9,1.4L11.9,1.4z"/>
	<path class="st2" d="M7.5,1.4L7.5,1.4L7.5,1.4 M11.9,1.4C11.9,1.4,12,1.4,11.9,1.4C12,1.4,11.9,1.4,11.9,1.4 M12,1.5
		C12,1.5,12,1.5,12,1.5C12,1.5,12,1.5,12,1.5 M12.1,1.5C12,1.5,12.1,1.5,12.1,1.5C12.1,1.5,12.1,1.5,12.1,1.5 M12.1,1.5
		c0.1,0.1,0.1,0.1,0.2,0.1C12.3,1.6,12.2,1.5,12.1,1.5z"/>
	<path class="st1" d="M12.2,1.5L12.2,1.5L12.2,1.5 M12.2,1.5L12.2,1.5L12.2,1.5z"/>
	<path class="st4" d="M7.3,1.6L7.3,1.6L7.3,1.6z"/>
	<path class="st2" d="M12.3,1.6C12.3,1.6,12.4,1.6,12.3,1.6C12.4,1.6,12.3,1.6,12.3,1.6 M12.4,1.7C12.4,1.7,12.4,1.7,12.4,1.7
		C12.4,1.7,12.4,1.7,12.4,1.7z"/>
	<path class="st1" d="M12.6,1.7L12.6,1.7L12.6,1.7z"/>
	<path class="st4" d="M12.6,1.7L12.6,1.7L12.6,1.7 M12.8,1.8L12.8,1.8L12.8,1.8 M12.8,1.8L12.8,1.8L12.8,1.8z"/>
	<path class="st1" d="M12.9,1.9L12.9,1.9L12.9,1.9 M13,1.9L13,1.9L13,1.9z"/>
	<path class="st2" d="M6.9,2L6.9,2L6.9,2 M13.1,2L13.1,2L13.1,2 M6.8,2L6.8,2L6.8,2z"/>
	<path class="st1" d="M13.1,2L13.1,2L13.1,2 M6.8,2L6.8,2L6.8,2z"/>
	<path class="st4" d="M13.2,2.1L13.2,2.1L13.2,2.1 M13.3,2.1L13.3,2.1L13.3,2.1z"/>
	<path class="st2" d="M6.7,2.2L6.7,2.2L6.7,2.2z"/>
	<path class="st1" d="M6.7,2.2L6.7,2.2L6.7,2.2z"/>
	<path class="st5" d="M13.4,2.2L13.4,2.2L13.4,2.2z"/>
	<path class="st4" d="M13.4,2.2L13.4,2.2L13.4,2.2 M6.6,2.3L6.6,2.3L6.6,2.3z"/>
	<path class="st1" d="M13.5,2.3L13.5,2.3L13.5,2.3z"/>
	<path class="st4" d="M13.6,2.3L13.6,2.3L13.6,2.3z"/>
	<path class="st2" d="M6.6,2.3L6.6,2.3L6.6,2.3 M13.6,2.3L13.6,2.3L13.6,2.3z"/>
	<path class="st1" d="M6.6,2.4L6.6,2.4L6.6,2.4z"/>
	<path class="st5" d="M13.7,2.4L13.7,2.4L13.7,2.4z"/>
	<path class="st1" d="M13.7,2.4L13.7,2.4L13.7,2.4 M6.5,2.4L6.5,2.4L6.5,2.4 M13.7,2.4L13.7,2.4L13.7,2.4 M13.7,2.5L13.7,2.5
		L13.7,2.5z"/>
	<path class="st4" d="M6.5,2.5L6.5,2.5L6.5,2.5z"/>
	<path class="st1" d="M10.8,2.5C10.8,2.5,10.9,2.5,10.8,2.5C10.9,2.5,10.9,2.5,10.8,2.5z"/>
	<path class="st0" d="M11.9,8.4c0-1.5,0.1-3-0.3-4.5c-0.1-0.3-0.2-0.7-0.3-1c0-0.1-0.1-0.3-0.2-0.4c-0.2-0.1-0.7,0-0.9,0.1
		C9.4,2.8,8.7,3.1,8.1,3.7C8,3.9,7.7,4.2,7.7,4.5c0,0.1,0.2,0.3,0.3,0.3l0.7,0.7c0.7,0.7,1.4,1.3,2.1,1.9
		C11.2,7.8,11.5,8.2,11.9,8.4z"/>
	<path class="st5" d="M11.1,2.5L11.1,2.5L11.1,2.5z"/>
	<path class="st4" d="M13.8,2.5L13.8,2.5L13.8,2.5z"/>
	<path class="st1" d="M10.6,2.5C10.6,2.6,10.6,2.6,10.6,2.5C10.6,2.5,10.6,2.5,10.6,2.5z"/>
	<path class="st4" d="M13.8,2.5L13.8,2.5L13.8,2.5z"/>
	<path class="st5" d="M6.5,2.6L6.5,2.6L6.5,2.6z"/>
	<path class="st4" d="M10.4,2.6L10.4,2.6L10.4,2.6z"/>
	<path class="st1" d="M10.4,2.6L10.4,2.6L10.4,2.6 M11.2,2.6L11.2,2.6L11.2,2.6z"/>
	<path class="st4" d="M13.8,2.6L13.8,2.6L13.8,2.6z"/>
	<path class="st2" d="M6.5,2.6l0,0.1c0.5,0.4,0.9,1.1,1.2,1.7c0.1-0.1,0.1-0.1,0.2-0.2C7.6,3.8,7.3,3.5,7,3.1
		C6.9,2.9,6.8,2.6,6.5,2.6z"/>
	<path class="st4" d="M10.2,2.6L10.2,2.6L10.2,2.6z"/>
	<path class="st5" d="M10.3,2.6L10.3,2.6L10.3,2.6z"/>
	<path class="st4" d="M13.9,2.6L13.9,2.6L13.9,2.6 M10.1,2.6L10.1,2.6L10.1,2.6 M13.9,2.6L13.9,2.6L13.9,2.6z"/>
	<path class="st1" d="M6.4,2.7L6.4,2.7L6.4,2.7z"/>
	<path class="st4" d="M10,2.7L10,2.7L10,2.7 M13.9,2.7L13.9,2.7L13.9,2.7 M14,2.7L14,2.7L14,2.7z"/>
	<path class="st6" d="M6.4,2.7C6.3,3.3,6.2,3.9,6.2,4.5C6.1,5.6,6,6.7,6.5,7.7c0.2,0.6,0.7,1.1,1.1,1.6c0.7,0.9,1.5,1.8,2.2,2.7
		c2.3,2.6,4.8,5.1,7.6,7.3c1.2,1,2.5,2,3.8,2.9c0.5,0.3,1.1,0.9,1.7,0.9c0.1-0.6,0.3-1.2,0.4-1.7c0.2-0.8,0.3-1.5,0.4-2.3
		c0.1-0.4,0.1-0.8,0.1-1.2c0-0.1,0-0.3,0-0.4c-0.1-0.1-0.3-0.2-0.4-0.2c-0.3-0.2-0.7-0.4-1-0.6c-1.2-0.8-2.4-1.6-3.6-2.5
		c-3.3-2.5-6.5-5.2-9.5-8C8.6,5.4,7.9,4.8,7.4,4C7.2,3.8,7,3.6,6.9,3.3C6.8,3.1,6.6,2.8,6.4,2.7L6.4,2.7z"/>
	<path class="st1" d="M11.2,2.7L11.2,2.7L11.2,2.7z"/>
	<path class="st4" d="M14,2.7L14,2.7L14,2.7 M6.4,2.8C6.4,2.8,6.4,2.8,6.4,2.8C6.4,2.8,6.4,2.8,6.4,2.8z"/>
	<path class="st2" d="M9.6,2.8C9.6,2.8,9.6,2.8,9.6,2.8C9.7,2.8,9.6,2.8,9.6,2.8z"/>
	<path class="st4" d="M9.7,2.8L9.7,2.8L9.7,2.8 M14,2.8L14,2.8L14,2.8z"/>
	<path class="st2" d="M9.4,2.8c0.1,0,0.1,0,0.2,0C9.5,2.8,9.5,2.8,9.4,2.8 M11.2,2.8L11.2,2.8L11.2,2.8z"/>
	<path class="st5" d="M9.5,2.8L9.5,2.8L9.5,2.8z"/>
	<path class="st2" d="M14.1,2.8L14.1,2.8L14.1,2.8 M9.3,2.9c0.1,0,0.1,0,0.2,0C9.4,2.9,9.4,2.9,9.3,2.9 M14.1,2.8L14.1,2.8L14.1,2.8
		z"/>
	<path class="st5" d="M9.3,2.9L9.3,2.9L9.3,2.9z"/>
	<path class="st4" d="M11.3,2.9L11.3,2.9L11.3,2.9z"/>
	<path class="st2" d="M14.1,2.9L14.1,2.9L14.1,2.9 M9.2,2.9C9.2,2.9,9.3,2.9,9.2,2.9C9.3,2.9,9.2,2.9,9.2,2.9z"/>
	<path class="st4" d="M14.2,2.9L14.2,2.9L14.2,2.9z"/>
	<path class="st2" d="M9.2,3C9.2,3,9.2,3,9.2,3C9.2,2.9,9.2,3,9.2,3z"/>
	<path class="st4" d="M6.7,3c0.3,0.5,0.6,1.1,1,1.5l0,0C7.5,4,7.2,3.7,7,3.3C6.8,3.2,6.8,3,6.7,3L6.7,3z"/>
	<path class="st2" d="M9.1,3C9.1,3,9.1,3,9.1,3C9.2,3,9.1,3,9.1,3z"/>
	<path class="st5" d="M11.3,3L11.3,3L11.3,3z"/>
	<path class="st2" d="M9.1,3C9,3,9.1,3,9.1,3C9.1,3,9.1,3,9.1,3 M14.2,3L14.2,3L14.2,3 M9,3C9,3.1,9,3.1,9,3C9,3,9,3,9,3 M11.3,3
		L11.3,3L11.3,3z"/>
	<path class="st4" d="M14.3,3L14.3,3L14.3,3z"/>
	<path class="st2" d="M8.9,3.1L8.9,3.1L8.9,3.1z"/>
	<path class="st4" d="M8.9,3.1C8.9,3.1,8.9,3.1,8.9,3.1C8.9,3.1,8.9,3.1,8.9,3.1z"/>
	<path class="st2" d="M14.3,3.1L14.3,3.1L14.3,3.1z"/>
	<path class="st5" d="M6.3,3.1v0.2C6.3,3.2,6.3,3.2,6.3,3.1z"/>
	<path class="st4" d="M8.8,3.1C8.8,3.2,8.9,3.2,8.8,3.1C8.9,3.1,8.8,3.1,8.8,3.1 M11.4,3.1L11.4,3.1L11.4,3.1z"/>
	<path class="st2" d="M14.3,3.1L14.3,3.1L14.3,3.1 M8.8,3.2L8.8,3.2L8.8,3.2 M8.7,3.2L8.7,3.2L8.7,3.2z"/>
	<path class="st4" d="M8.7,3.2L8.7,3.2L8.7,3.2 M8.7,3.2L8.7,3.2L8.7,3.2z"/>
	<path class="st4" d="M11.4,3.2L11.4,3.2L11.4,3.2z"/>
	<path class="st2" d="M14.4,3.2L14.4,3.2L14.4,3.2z"/>
	<path class="st4" d="M8.7,3.3L8.7,3.3L8.7,3.3z"/>
	<path class="st2" d="M8.6,3.3L8.6,3.3L8.6,3.3z"/>
	<path class="st4" d="M8.6,3.3L8.6,3.3L8.6,3.3 M8.6,3.3L8.6,3.3L8.6,3.3 M11.4,3.3L11.4,3.3L11.4,3.3z"/>
	<path class="st1" d="M14.4,3.3L14.4,3.3L14.4,3.3z"/>
	<path class="st4" d="M8.5,3.4L8.5,3.4L8.5,3.4z"/>
	<path class="st1" d="M11.4,3.4L11.4,3.4L11.4,3.4z"/>
	<path class="st5" d="M6.2,3.4v0.3C6.3,3.6,6.3,3.5,6.2,3.4z"/>
	<path class="st1" d="M8.5,3.4L8.5,3.4L8.5,3.4z"/>
	<path class="st2" d="M14.5,3.4L14.5,3.4L14.5,3.4 M8.4,3.4L8.4,3.4L8.4,3.4z"/>
	<path class="st1" d="M8.5,3.4L8.5,3.4L8.5,3.4z"/>
	<path class="st2" d="M11.5,3.4L11.5,3.4L11.5,3.4z"/>
	<path class="st4" d="M8.4,3.4L8.4,3.4L8.4,3.4z"/>
	<path class="st1" d="M11.5,3.4L11.5,3.4L11.5,3.4z"/>
	<path class="st4" d="M8.4,3.5L8.4,3.5L8.4,3.5 M8.3,3.5L8.3,3.5L8.3,3.5z"/>
	<path class="st2" d="M11.5,3.5L11.5,3.5L11.5,3.5z"/>
	<path class="st1" d="M8.3,3.5L8.3,3.5L8.3,3.5 M11.5,3.5L11.5,3.5L11.5,3.5 M8.3,3.6L8.3,3.6L8.3,3.6 M8.2,3.6L8.2,3.6L8.2,3.6
		 M8.2,3.6L8.2,3.6L8.2,3.6z"/>
	<path class="st2" d="M11.5,3.6L11.5,3.6L11.5,3.6z"/>
	<path class="st1" d="M8.2,3.7L8.2,3.7L8.2,3.7 M11.5,3.7L11.5,3.7L11.5,3.7 M8.1,3.7L8.1,3.7L8.1,3.7z"/>
	<path class="st4" d="M8.1,3.7L8.1,3.7L8.1,3.7z"/>
	<path class="st2" d="M11.6,3.7L11.6,3.7L11.6,3.7 M8.1,3.8L8.1,3.8L8.1,3.8z"/>
	<path class="st4" d="M11.6,3.8L11.6,3.8L11.6,3.8z"/>
	<path class="st2" d="M14.7,3.8L14.7,3.8L14.7,3.8z"/>
	<path class="st5" d="M6.2,3.8V4C6.2,3.9,6.2,3.9,6.2,3.8z"/>
	<path class="st4" d="M14.7,3.8L14.7,3.8L14.7,3.8z"/>
	<path class="st2" d="M11.6,3.9L11.6,3.9L11.6,3.9z"/>
	<path class="st1" d="M8,3.9L8,3.9L8,3.9 M11.6,3.9L11.6,3.9L11.6,3.9 M14.7,3.9L14.7,3.9L14.7,3.9z"/>
	<path class="st2" d="M11.6,4L11.6,4L11.6,4z"/>
	<path class="st4" d="M14.8,4L14.8,4L14.8,4z"/>
	<path class="st2" d="M7.9,4L7.9,4L7.9,4z"/>
	<path class="st1" d="M11.6,4L11.6,4L11.6,4 M14.8,4L14.8,4L14.8,4z"/>
	<path class="st2" d="M14.8,4.1L14.8,4.1L14.8,4.1 M11.7,4.1L11.7,4.1L11.7,4.1z"/>
	<path class="st5" d="M6.2,4.1v0.1C6.2,4.2,6.2,4.2,6.2,4.1z"/>
	<path class="st4" d="M11.7,4.1L11.7,4.1L11.7,4.1z"/>
	<path class="st1" d="M14.8,4.1L14.8,4.1L14.8,4.1 M7.8,4.2L7.8,4.2L7.8,4.2z"/>
	<path class="st2" d="M14.8,4.2L14.8,4.2L14.8,4.2z"/>
	<path class="st1" d="M14.9,4.2L14.9,4.2L14.9,4.2 M11.7,4.3C11.7,4.3,11.7,4.3,11.7,4.3C11.7,4.3,11.7,4.3,11.7,4.3z"/>
	<path class="st2" d="M14.9,4.3L14.9,4.3L14.9,4.3z"/>
	<path class="st5" d="M14.9,4.3L14.9,4.3L14.9,4.3z"/>
	<path class="st2" d="M14.9,4.4L14.9,4.4L14.9,4.4z"/>
	<path class="st5" d="M6.2,4.4v0.2C6.2,4.5,6.2,4.5,6.2,4.4 M7.7,4.5C7.7,4.5,7.7,4.5,7.7,4.5C7.7,4.5,7.7,4.4,7.7,4.5z"/>
	<path class="st1" d="M11.7,4.5C11.7,4.5,11.7,4.5,11.7,4.5C11.7,4.5,11.7,4.4,11.7,4.5 M14.9,4.5L14.9,4.5L14.9,4.5z"/>
	<path class="st2" d="M14.9,4.5L14.9,4.5L14.9,4.5z"/>
	<path class="st4" d="M11.8,4.6C11.8,4.6,11.8,4.6,11.8,4.6C11.8,4.6,11.8,4.6,11.8,4.6z"/>
	<path class="st1" d="M15,4.6L15,4.6L15,4.6z"/>
	<path class="st4" d="M15,4.6L15,4.6L15,4.6z"/>
	<path class="st1" d="M15,4.7L15,4.7L15,4.7z"/>
	<path class="st4" d="M15,4.7L15,4.7L15,4.7z"/>
	<path class="st1" d="M11.8,4.8C11.8,4.8,11.8,4.8,11.8,4.8C11.8,4.8,11.8,4.8,11.8,4.8z"/>
	<path class="st5" d="M6.1,4.9C6.1,4.9,6.1,4.9,6.1,4.9C6.1,4.9,6.1,4.8,6.1,4.9z"/>
	<path class="st4" d="M15,4.9L15,4.9C15,4.9,15,4.9,15,4.9z"/>
	<path class="st5" d="M8.1,4.9L8.1,4.9L8.1,4.9 M8.1,5L8.1,5L8.1,5z"/>
	<path class="st4" d="M11.8,5C11.8,5,11.8,5,11.8,5C11.8,5,11.8,5,11.8,5z"/>
	<path class="st5" d="M8.2,5L8.2,5L8.2,5 M8.2,5L8.2,5L8.2,5 M11.8,5.1C11.8,5.1,11.8,5.1,11.8,5.1C11.8,5.1,11.8,5,11.8,5.1z"/>
	<path class="st1" d="M15.1,5.1C15.1,5.1,15.1,5.1,15.1,5.1C15.1,5.1,15.1,5,15.1,5.1z"/>
	<path class="st5" d="M6.1,5.1v0.3C6.1,5.3,6.1,5.2,6.1,5.1 M8.2,5.1L8.2,5.1L8.2,5.1 M8.3,5.1L8.3,5.1L8.3,5.1z"/>
	<path class="st4" d="M15.1,5.1C15.1,5.1,15.1,5.2,15.1,5.1C15.1,5.1,15.1,5.1,15.1,5.1 M11.9,5.2C11.9,5.2,11.9,5.2,11.9,5.2
		C11.9,5.2,11.9,5.2,11.9,5.2z"/>
	<path class="st5" d="M8.4,5.2L8.4,5.2L8.4,5.2z"/>
	<path class="st1" d="M11.9,5.3C11.9,5.3,11.9,5.3,11.9,5.3C11.9,5.3,11.9,5.3,11.9,5.3z"/>
	<path class="st5" d="M15.1,5.3L15.1,5.3C15.1,5.3,15.1,5.3,15.1,5.3 M8.5,5.3L8.5,5.3L8.5,5.3 M8.5,5.3L8.5,5.3L8.5,5.3z"/>
	<path class="st4" d="M15.1,5.4C15.1,5.4,15.1,5.4,15.1,5.4C15.1,5.4,15.1,5.4,15.1,5.4z"/>
	<path class="st5" d="M8.6,5.4L8.6,5.4L8.6,5.4 M8.6,5.4L8.6,5.4L8.6,5.4z"/>
	<path class="st2" d="M11.9,5.4L11.9,5.4C11.9,5.5,11.9,5.5,11.9,5.4 M15.1,5.4C15.1,5.4,15.1,5.5,15.1,5.4
		C15.1,5.5,15.1,5.4,15.1,5.4z"/>
	<path class="st5" d="M8.6,5.4L8.6,5.4L8.6,5.4 M8.7,5.5L8.7,5.5L8.7,5.5z"/>
	<path class="st1" d="M11.9,5.5C11.9,5.5,11.9,5.6,11.9,5.5C11.9,5.5,11.9,5.5,11.9,5.5z"/>
	<path class="st5" d="M11.9,5.6C11.9,5.6,11.9,5.6,11.9,5.6C11.9,5.6,11.9,5.6,11.9,5.6 M6.1,5.6v0.5C6.1,5.9,6.1,5.7,6.1,5.6z"/>
	<path class="st1" d="M15.1,5.6v0.2C15.1,5.7,15.1,5.7,15.1,5.6z"/>
	<path class="st2" d="M11.9,5.7C11.9,5.7,11.9,5.8,11.9,5.7C11.9,5.8,11.9,5.7,11.9,5.7z"/>
	<path class="st4" d="M11.9,5.8C11.9,5.8,11.9,5.8,11.9,5.8C11.9,5.8,11.9,5.8,11.9,5.8z"/>
	<path class="st5" d="M9,5.8L9,5.8L9,5.8z"/>
	<path class="st2" d="M15.1,5.8v0.3C15.2,6.1,15.2,5.9,15.1,5.8z"/>
	<path class="st5" d="M9.1,5.9L9.1,5.9L9.1,5.9z"/>
	<path class="st1" d="M11.9,5.9C11.9,5.9,11.9,5.9,11.9,5.9C11.9,5.9,11.9,5.9,11.9,5.9z"/>
	<path class="st5" d="M9.1,5.9L9.1,5.9L9.1,5.9 M9.1,5.9L9.1,5.9L9.1,5.9 M11.9,5.9L11.9,5.9C11.9,6,11.9,6,11.9,5.9 M9.2,5.9
		L9.2,5.9L9.2,5.9 M9.2,6L9.2,6L9.2,6 M9.2,6L9.2,6L9.2,6 M9.3,6L9.3,6L9.3,6 M9.3,6.1L9.3,6.1L9.3,6.1z"/>
	<path class="st2" d="M11.9,6.1v0.1C12,6.2,12,6.2,11.9,6.1z"/>
	<path class="st5" d="M6.1,6.2v0.2C6.1,6.3,6.1,6.2,6.1,6.2z"/>
	<path class="st1" d="M11.9,6.2v0.2C12,6.4,12,6.3,11.9,6.2z"/>
	<path class="st5" d="M9.5,6.3L9.5,6.3L9.5,6.3z"/>
	<path class="st5" d="M6.1,6.4v0.1C6.1,6.5,6.1,6.4,6.1,6.4z"/>
	<path class="st2" d="M15.1,6.7v0.4C15.2,7,15.2,6.8,15.1,6.7z"/>
	<path class="st5" d="M10,6.7L10,6.7L10,6.7 M10,6.7L10,6.7L10,6.7 M10,6.8L10,6.8L10,6.8 M10.1,6.8L10.1,6.8L10.1,6.8 M6.2,6.8V7
		C6.2,6.9,6.2,6.9,6.2,6.8z"/>
	<path class="st2" d="M12,6.8v0.7C12,7.4,12,7,12,6.8z"/>
	<path class="st5" d="M10.2,6.9L10.2,6.9L10.2,6.9 M10.2,6.9L10.2,6.9L10.2,6.9 M10.2,6.9L10.2,6.9L10.2,6.9 M10.3,7L10.3,7L10.3,7
		 M6.2,7C6.2,7,6.2,7,6.2,7C6.2,7,6.2,7,6.2,7 M10.3,7L10.3,7L10.3,7 M10.3,7L10.3,7L10.3,7 M6.2,7.1L6.2,7.1
		C6.3,7.1,6.3,7.1,6.2,7.1z"/>
	<path class="st4" d="M15.1,7.1v0.2C15.1,7.3,15.1,7.2,15.1,7.1z"/>
	<path class="st5" d="M6.3,7.2L6.3,7.2C6.3,7.2,6.3,7.2,6.3,7.2 M6.3,7.3L6.3,7.3C6.3,7.3,6.3,7.3,6.3,7.3z"/>
	<path class="st1" d="M15.1,7.3v0.6C15.2,7.8,15.2,7.5,15.1,7.3z"/>
	<path class="st5" d="M6.3,7.4L6.3,7.4C6.4,7.4,6.4,7.4,6.3,7.4 M10.8,7.4L10.8,7.4L10.8,7.4 M10.8,7.4L10.8,7.4L10.8,7.4 M6.4,7.5
		C6.4,7.5,6.4,7.5,6.4,7.5C6.4,7.5,6.4,7.5,6.4,7.5 M10.8,7.5L10.8,7.5L10.8,7.5 M10.9,7.5L10.9,7.5L10.9,7.5 M6.4,7.6
		C6.4,7.6,6.4,7.6,6.4,7.6C6.4,7.6,6.4,7.6,6.4,7.6 M11.1,7.7L11.1,7.7L11.1,7.7 M11.1,7.7L11.1,7.7L11.1,7.7 M11.1,7.7L11.1,7.7
		L11.1,7.7 M6.5,7.8L6.5,7.8L6.5,7.8 M6.5,7.8L6.5,7.8L6.5,7.8 M11.9,7.8V8C12,7.9,12,7.9,11.9,7.8 M6.5,7.9L6.5,7.9L6.5,7.9
		 M11.3,7.9L11.3,7.9L11.3,7.9 M11.3,7.9L11.3,7.9L11.3,7.9 M6.6,8C6.6,8,6.6,8,6.6,8C6.6,8,6.6,7.9,6.6,8 M11.4,7.9L11.4,7.9
		L11.4,7.9z"/>
	<path class="st2" d="M12,7.9c0,0.1,0,0.3,0,0.4c0.1,0.3,0.5,0.4,0.7,0.6c0.7,0.6,1.5,1.3,2.3,1.9c0-0.2,0-0.4-0.1-0.6
		c-0.3-0.4-0.9-0.6-1.3-0.9C13.1,8.9,12.6,8.3,12,7.9z"/>
	<path class="st5" d="M11.4,8L11.4,8L11.4,8 M11.4,8L11.4,8L11.4,8z"/>
	<path class="st1" d="M11.9,8v0.4C12,8.3,12,8.1,11.9,8z"/>
	<path class="st5" d="M11.5,8L11.5,8L11.5,8 M6.6,8.1L6.6,8.1L6.6,8.1 M6.7,8.1C6.7,8.1,6.7,8.2,6.7,8.1C6.7,8.1,6.7,8.1,6.7,8.1
		 M11.6,8.1L11.6,8.1L11.6,8.1 M6.7,8.2C6.7,8.2,6.7,8.2,6.7,8.2C6.7,8.2,6.7,8.2,6.7,8.2 M6.7,8.2L6.7,8.2L6.7,8.2 M6.8,8.3
		L6.8,8.3L6.8,8.3 M6.8,8.3L6.8,8.3L6.8,8.3 M11.8,8.4L11.8,8.4L11.8,8.4 M6.8,8.4L6.8,8.4L6.8,8.4 M11.9,8.4L11.9,8.4L11.9,8.4z"/>
	<path class="st4" d="M11.9,8.4c0.1,0.3,0.6,0.6,0.8,0.8c0.7,0.6,1.5,1.4,2.3,1.9c0-0.4-0.5-0.5-0.7-0.7c-0.6-0.5-1.2-1.1-1.9-1.5
		C12.3,8.7,12.2,8.5,11.9,8.4L11.9,8.4z"/>
	<path class="st5" d="M11.9,8.4L11.9,8.4L11.9,8.4 M6.9,8.5L6.9,8.5L6.9,8.5 M7,8.7L7,8.7L7,8.7 M7,8.7L7,8.7L7,8.7z"/>
	<path class="st2" d="M15.1,8.8V9C15.1,8.9,15.1,8.8,15.1,8.8z"/>
	<path class="st5" d="M7.3,9L7.3,9L7.3,9z"/>
	<path class="st4" d="M15.1,9v0.3C15.1,9.2,15.1,9.1,15.1,9z"/>
	<path class="st5" d="M7.4,9.1L7.4,9.1L7.4,9.1 M7.4,9.1L7.4,9.1L7.4,9.1 M7.5,9.2L7.5,9.2L7.5,9.2 M7.5,9.3L7.5,9.3L7.5,9.3z"/>
	<path class="st1" d="M15.1,9.3v0.2C15.1,9.4,15.1,9.3,15.1,9.3z"/>
	<path class="st5" d="M7.5,9.3L7.5,9.3L7.5,9.3 M7.6,9.4L7.6,9.4L7.6,9.4 M15.1,9.5v0.3C15.1,9.6,15.1,9.5,15.1,9.5 M7.7,9.5
		L7.7,9.5L7.7,9.5 M7.7,9.6L7.7,9.6L7.7,9.6 M7.8,9.7L7.8,9.7L7.8,9.7 M7.8,9.7L7.8,9.7L7.8,9.7 M8,10L8,10L8,10 M8.1,10.1L8.1,10.1
		L8.1,10.1 M8.1,10.1L8.1,10.1L8.1,10.1 M8.1,10.1L8.1,10.1L8.1,10.1 M8.2,10.2L8.2,10.2L8.2,10.2z"/>
	<path class="st4" d="M15,10.2v0.2C15.1,10.3,15.1,10.3,15,10.2z"/>
	<path class="st5" d="M8.3,10.3L8.3,10.3L8.3,10.3z"/>
	<path class="st1" d="M15,10.4v0.2C15.1,10.6,15.1,10.5,15,10.4z"/>
	<path class="st5" d="M8.4,10.4L8.4,10.4L8.4,10.4 M8.4,10.5L8.4,10.5L8.4,10.5 M14.3,10.5L14.3,10.5L14.3,10.5 M8.5,10.5L8.5,10.5
		L8.5,10.5 M8.5,10.6L8.5,10.6L8.5,10.6 M8.5,10.6L8.5,10.6L8.5,10.6 M8.6,10.6L8.6,10.6L8.6,10.6 M15,10.6v0.2
		C15.1,10.7,15.1,10.7,15,10.6 M14.6,10.7L14.6,10.7L14.6,10.7 M14.6,10.7L14.6,10.7L14.6,10.7 M14.8,10.8L14.8,10.8L14.8,10.8
		 M14.8,10.9L14.8,10.9L14.8,10.9 M8.8,10.9L8.8,10.9L8.8,10.9 M8.8,10.9L8.8,10.9L8.8,10.9z"/>
	<path class="st1" d="M14.9,10.9C15,11,15,11,15,11C15,11,15,11,14.9,10.9z"/>
	<path class="st5" d="M8.8,11L8.8,11L8.8,11 M8.9,11.1L8.9,11.1L8.9,11.1 M15.1,11.1L15.1,11.1L15.1,11.1 M8.9,11.1L8.9,11.1
		L8.9,11.1 M15.1,11.1L15.1,11.1L15.1,11.1 M9,11.1L9,11.1L9,11.1 M15.3,11.2L15.3,11.2L15.3,11.2 M15.3,11.3L15.3,11.3L15.3,11.3
		 M15.3,11.3L15.3,11.3L15.3,11.3 M15.4,11.3L15.4,11.3L15.4,11.3 M9.2,11.4L9.2,11.4L9.2,11.4 M15.4,11.4L15.4,11.4L15.4,11.4
		 M9.2,11.4L9.2,11.4L9.2,11.4 M15.5,11.4L15.5,11.4L15.5,11.4 M15.5,11.4L15.5,11.4L15.5,11.4z"/>
	<path class="st4" d="M15.5,11.5L15.5,11.5L15.5,11.5z"/>
	<path class="st5" d="M9.3,11.5L9.3,11.5L9.3,11.5 M9.3,11.5L9.3,11.5L9.3,11.5 M15.6,11.5L15.6,11.5L15.6,11.5 M9.3,11.5L9.3,11.5
		L9.3,11.5 M9.3,11.6L9.3,11.6L9.3,11.6 M9.4,11.6L9.4,11.6L9.4,11.6 M9.5,11.8L9.5,11.8L9.5,11.8 M16,11.8L16,11.8L16,11.8
		 M16,11.8L16,11.8L16,11.8 M16,11.9L16,11.9L16,11.9 M9.6,11.9L9.6,11.9L9.6,11.9 M9.7,12L9.7,12L9.7,12 M16.2,12L16.2,12L16.2,12
		 M9.7,12L9.7,12L9.7,12 M16.2,12L16.2,12L16.2,12 M9.7,12L9.7,12L9.7,12 M9.8,12.1L9.8,12.1L9.8,12.1 M16.3,12.1L16.3,12.1
		L16.3,12.1 M16.3,12.1L16.3,12.1L16.3,12.1 M16.5,12.2L16.5,12.2L16.5,12.2 M16.6,12.3L16.6,12.3L16.6,12.3z"/>
	<path class="st4" d="M16.7,12.4L16.7,12.4L16.7,12.4z"/>
	<path class="st5" d="M10,12.4L10,12.4L10,12.4 M16.7,12.4L16.7,12.4L16.7,12.4 M10.1,12.4L10.1,12.4L10.1,12.4 M16.8,12.4
		L16.8,12.4L16.8,12.4 M10.1,12.5L10.1,12.5L10.1,12.5 M16.8,12.5L16.8,12.5L16.8,12.5 M10.1,12.5L10.1,12.5L10.1,12.5 M10.2,12.5
		L10.2,12.5L10.2,12.5 M17,12.7L17,12.7L17,12.7 M17,12.7L17,12.7L17,12.7 M17.1,12.8L17.1,12.8L17.1,12.8 M17.2,12.8L17.2,12.8
		L17.2,12.8 M17.2,12.8L17.2,12.8L17.2,12.8 M10.5,12.8L10.5,12.8L10.5,12.8 M17.3,12.8L17.3,12.8L17.3,12.8 M17.3,12.9L17.3,12.9
		L17.3,12.9 M17.3,12.9L17.3,12.9L17.3,12.9 M17.4,12.9L17.4,12.9L17.4,12.9 M17.4,13L17.4,13L17.4,13 M10.6,13L10.6,13L10.6,13
		 M17.5,13L17.5,13L17.5,13 M10.6,13L10.6,13L10.6,13 M17.5,13L17.5,13L17.5,13 M10.6,13.1L10.6,13.1L10.6,13.1 M17.5,13.1
		L17.5,13.1L17.5,13.1 M10.7,13.1L10.7,13.1L10.7,13.1 M17.7,13.2L17.7,13.2L17.7,13.2 M17.8,13.3L17.8,13.3L17.8,13.3 M10.9,13.3
		L10.9,13.3L10.9,13.3 M17.9,13.3L17.9,13.3L17.9,13.3 M10.9,13.4L10.9,13.4L10.9,13.4 M17.9,13.4L17.9,13.4L17.9,13.4 M10.9,13.4
		L10.9,13.4L10.9,13.4 M17.9,13.4L17.9,13.4L17.9,13.4 M11,13.4L11,13.4L11,13.4 M11,13.4L11,13.4L11,13.4 M18,13.4L18,13.4L18,13.4
		 M11,13.5L11,13.5L11,13.5 M18.1,13.5L18.1,13.5L18.1,13.5 M11.1,13.5L11.1,13.5L11.1,13.5 M18.1,13.5L18.1,13.5L18.1,13.5
		 M11.1,13.5L11.1,13.5L11.1,13.5 M11.1,13.6L11.1,13.6L11.1,13.6 M18.2,13.6L18.2,13.6L18.2,13.6z"/>
	<path class="st4" d="M11.2,13.7c0,0.3,0.5,0.8,0.7,0.9c0.6,0.6,1.2,1.1,1.7,1.7c0.3,0.3,0.6,0.7,1,0.9c0-0.4-0.6-0.8-0.9-1
		c-0.6-0.5-1.1-1.1-1.6-1.6C11.8,14.3,11.5,13.9,11.2,13.7L11.2,13.7z"/>
	<path class="st5" d="M18.4,13.8L18.4,13.8L18.4,13.8z"/>
	<path class="st2" d="M11.2,13.8c0,0.2-0.2,0.5-0.1,0.7c0.1,0.3,0.5,0.5,0.6,0.7h-0.1c0.2,0.2,0.5,0.4,0.6,0.6l-0.1,0
		c0.1,0.1,0.2,0.2,0.3,0.3h-0.1c0.1,0.2,0.3,0.3,0.4,0.4l-0.2,0c0.1,0.2,0.3,0.3,0.4,0.4c-0.6,0-1.1,0.1-1.7,0.1
		c-0.2,0-0.6,0-0.8,0.1c-0.1,0.1-0.1,0.3-0.2,0.4c-0.1,0.4-0.2,0.8-0.3,1.2c-0.4,1.3-0.7,2.6-1,3.9c-0.1,0.5-0.4,1.3-0.2,1.8
		c0.2,0.6,0.8,1,1.2,1.4c0.8,0.7,1.6,1.4,2.4,2.1c0.2,0.2,0.5,0.5,0.7,0.7c0.1,0.1,0.2,0.4,0.3,0.5c0-1.2,0.3-2.4,0.4-3.6l0.6-5.1
		c0.1-0.8,0.2-1.7,0.3-2.5c0-0.3,0.2-0.7,0.1-0.9c-0.1-0.1-0.2-0.2-0.4-0.4l-0.8-0.7c-0.5-0.5-1.1-1-1.6-1.6
		C11.6,14.3,11.4,14,11.2,13.8z"/>
	<path class="st5" d="M18.5,13.8L18.5,13.8L18.5,13.8z"/>
	<path class="st1" d="M11.1,13.9C11.1,13.9,11.1,13.9,11.1,13.9C11.1,13.9,11.1,13.8,11.1,13.9z"/>
	<path class="st5" d="M18.6,13.9L18.6,13.9L18.6,13.9 M18.6,13.9L18.6,13.9L18.6,13.9 M18.7,14L18.7,14L18.7,14z"/>
	<path class="st1" d="M11.1,14C11.1,14,11.1,14,11.1,14C11.1,14,11.1,14,11.1,14z"/>
	<path class="st5" d="M18.7,14L18.7,14L18.7,14 M18.7,14L18.7,14L18.7,14 M18.8,14.1L18.8,14.1L18.8,14.1z"/>
	<path class="st1" d="M11.1,14.1L11.1,14.1C11.1,14.2,11.1,14.2,11.1,14.1z"/>
	<path class="st5" d="M19,14.2L19,14.2L19,14.2 M19,14.2L19,14.2L19,14.2z"/>
	<path class="st1" d="M11,14.3C11,14.3,11,14.3,11,14.3C11,14.3,11.1,14.3,11,14.3z"/>
	<path class="st5" d="M19.1,14.3L19.1,14.3L19.1,14.3 M19.1,14.3L19.1,14.3L19.1,14.3 M19.2,14.3L19.2,14.3L19.2,14.3 M19.2,14.4
		L19.2,14.4L19.2,14.4 M19.3,14.4L19.3,14.4L19.3,14.4z"/>
	<path class="st4" d="M11,14.5C11,14.5,11,14.5,11,14.5C11,14.5,11,14.4,11,14.5z"/>
	<path class="st5" d="M19.3,14.4L19.3,14.4L19.3,14.4 M19.3,14.5L19.3,14.5L19.3,14.5z"/>
	<path class="st4" d="M11,14.6C11,14.6,11,14.6,11,14.6C11,14.6,11,14.6,11,14.6z"/>
	<path class="st5" d="M19.5,14.6L19.5,14.6L19.5,14.6z"/>
	<path class="st3" d="M11,14.6c-0.3,0.8-0.5,1.8-0.7,2.7c0.3-0.1,0.6,0,0.9-0.1c0.5,0,1.1-0.1,1.6-0.1c-0.1-0.2-0.3-0.3-0.4-0.4
		c0.1,0,0.1,0,0.2,0c-0.1-0.2-0.3-0.3-0.4-0.4h0.1c-0.1-0.1-0.2-0.2-0.3-0.3l0.1,0c-0.1-0.2-0.4-0.4-0.6-0.6h0.1
		C11.5,15,11.2,14.9,11,14.6L11,14.6z"/>
	<path class="st4" d="M19.5,14.6L19.5,14.6L19.5,14.6z"/>
	<path class="st5" d="M19.6,14.7L19.6,14.7L19.6,14.7z"/>
	<path class="st1" d="M10.9,14.7C10.9,14.7,10.9,14.7,10.9,14.7C11,14.7,11,14.7,10.9,14.7z"/>
	<path class="st5" d="M19.7,14.7L19.7,14.7L19.7,14.7 M19.8,14.8L19.8,14.8L19.8,14.8z"/>
	<path class="st4" d="M10.9,14.9C10.9,14.9,10.9,14.9,10.9,14.9C10.9,14.9,10.9,14.8,10.9,14.9z"/>
	<path class="st5" d="M19.9,14.8L19.9,14.8L19.9,14.8 M19.9,14.9L19.9,14.9L19.9,14.9 M19.9,14.9L19.9,14.9L19.9,14.9z"/>
	<path class="st1" d="M10.9,15L10.9,15L10.9,15z"/>
	<path class="st5" d="M20,15L20,15L20,15z"/>
	<path class="st4" d="M10.9,15L10.9,15L10.9,15z"/>
	<path class="st5" d="M20.2,15.1L20.2,15.1L20.2,15.1z"/>
	<path class="st4" d="M10.8,15.1C10.8,15.1,10.8,15.2,10.8,15.1C10.9,15.1,10.9,15.1,10.8,15.1z"/>
	<path class="st5" d="M20.2,15.1L20.2,15.1L20.2,15.1 M20.3,15.1L20.3,15.1L20.3,15.1 M20.3,15.2L20.3,15.2L20.3,15.2 M20.4,15.2
		L20.4,15.2L20.4,15.2z"/>
	<path class="st4" d="M10.8,15.2C10.8,15.2,10.8,15.3,10.8,15.2C10.8,15.3,10.8,15.2,10.8,15.2z"/>
	<path class="st5" d="M20.4,15.2L20.4,15.2L20.4,15.2 M20.5,15.3L20.5,15.3L20.5,15.3 M20.5,15.3L20.5,15.3L20.5,15.3z"/>
	<path class="st1" d="M10.8,15.4C10.8,15.4,10.8,15.4,10.8,15.4C10.8,15.4,10.8,15.4,10.8,15.4z"/>
	<path class="st5" d="M20.6,15.4L20.6,15.4L20.6,15.4 M20.7,15.4L20.7,15.4L20.7,15.4z"/>
	<path class="st1" d="M10.7,15.5L10.7,15.5L10.7,15.5z"/>
	<path class="st5" d="M20.8,15.5L20.8,15.5L20.8,15.5 M20.9,15.6L20.9,15.6L20.9,15.6 M20.9,15.6L20.9,15.6L20.9,15.6z"/>
	<path class="st1" d="M10.7,15.6L10.7,15.6L10.7,15.6z"/>
	<path class="st5" d="M21,15.7L21,15.7L21,15.7 M21.1,15.7L21.1,15.7L21.1,15.7z"/>
	<path class="st4" d="M10.7,15.8C10.7,15.8,10.7,15.8,10.7,15.8C10.7,15.8,10.7,15.8,10.7,15.8z"/>
	<path class="st5" d="M21.2,15.8L21.2,15.8L21.2,15.8 M21.3,15.9L21.3,15.9L21.3,15.9z"/>
	<path class="st4" d="M10.7,15.9C10.7,15.9,10.7,15.9,10.7,15.9C10.7,15.9,10.7,15.9,10.7,15.9 M21.3,15.9L21.3,15.9L21.3,15.9z"/>
	<path class="st5" d="M21.4,15.9L21.4,15.9L21.4,15.9z"/>
	<path class="st4" d="M10.6,16C10.6,16,10.6,16.1,10.6,16C10.6,16.1,10.6,16,10.6,16z"/>
	<path class="st5" d="M21.7,16.1L21.7,16.1L21.7,16.1z"/>
	<path class="st1" d="M10.6,16.2C10.6,16.2,10.6,16.2,10.6,16.2C10.6,16.2,10.6,16.1,10.6,16.2z"/>
	<path class="st5" d="M21.8,16.2L21.8,16.2L21.8,16.2 M21.8,16.2L21.8,16.2L21.8,16.2z"/>
	<path class="st1" d="M10.6,16.3C10.6,16.3,10.6,16.3,10.6,16.3C10.6,16.3,10.6,16.3,10.6,16.3z"/>
	<path class="st5" d="M22,16.3L22,16.3L22,16.3z"/>
	<path class="st4" d="M10.5,16.4C10.5,16.4,10.5,16.4,10.5,16.4C10.5,16.4,10.5,16.4,10.5,16.4z"/>
	<path class="st5" d="M22.1,16.4L22.1,16.4L22.1,16.4 M22.2,16.4L22.2,16.4L22.2,16.4 M22.2,16.5L22.2,16.5L22.2,16.5 M22.3,16.5
		L22.3,16.5L22.3,16.5z"/>
	<path class="st4" d="M10.5,16.5C10.5,16.5,10.5,16.6,10.5,16.5C10.5,16.6,10.5,16.5,10.5,16.5z"/>
	<path class="st5" d="M22.3,16.5L22.3,16.5L22.3,16.5 M22.4,16.5L22.4,16.5L22.4,16.5 M22.4,16.6C22.4,16.6,22.4,16.6,22.4,16.6
		C22.4,16.6,22.4,16.6,22.4,16.6 M22.4,16.6L22.4,16.6L22.4,16.6z"/>
	<path class="st1" d="M10.5,16.6L10.5,16.6L10.5,16.6z"/>
	<path class="st5" d="M22.5,16.6L22.5,16.6L22.5,16.6z"/>
	<path class="st4" d="M10.5,16.7L10.5,16.7L10.5,16.7z"/>
	<path class="st5" d="M22.5,16.7L22.5,16.7L22.5,16.7 M22.6,16.7L22.6,16.7L22.6,16.7z"/>
	<path class="st1" d="M10.4,16.8L10.4,16.8L10.4,16.8z"/>
	<path class="st4" d="M10.4,16.8L10.4,16.8L10.4,16.8z"/>
	<path class="st5" d="M22.8,16.8L22.8,16.8L22.8,16.8 M22.8,16.8L22.8,16.8L22.8,16.8z"/>
	<path class="st1" d="M10.4,16.9L10.4,16.9L10.4,16.9z"/>
	<path class="st5" d="M23,16.9C23,17,23,17,23,16.9C23,16.9,23,16.9,23,16.9 M23,17C23,17,23.1,17,23,17C23.1,17,23,17,23,17
		 M23.1,17L23.1,17L23.1,17z"/>
	<path class="st1" d="M10.4,17L10.4,17L10.4,17 M10.3,17.1C10.3,17.1,10.3,17.2,10.3,17.1C10.4,17.2,10.4,17.1,10.3,17.1z"/>
	<path class="st4" d="M23.3,17.1L23.3,17.1L23.3,17.1z"/>
	<path class="st5" d="M23.4,17.2L23.4,17.2L23.4,17.2 M14.6,17.2v0.1C14.6,17.3,14.6,17.2,14.6,17.2 M23.4,17.2
		C23.4,17.2,23.4,17.2,23.4,17.2C23.5,17.2,23.4,17.2,23.4,17.2 M23.5,17.2C23.5,17.2,23.5,17.2,23.5,17.2
		C23.5,17.2,23.5,17.2,23.5,17.2 M10.3,17.2L10.3,17.2L10.3,17.2 M14.9,17.2L14.9,17.2L14.9,17.2 M23.6,17.2L23.6,17.2L23.6,17.2z"
		/>
	<path class="st4" d="M10.3,17.3L10.3,17.3L10.3,17.3z"/>
	<path class="st5" d="M14.9,17.3L14.9,17.3L14.9,17.3 M15,17.3L15,17.3L15,17.3 M23.7,17.3C23.7,17.3,23.7,17.3,23.7,17.3
		C23.7,17.3,23.7,17.3,23.7,17.3 M15,17.3L15,17.3L15,17.3z"/>
	<path class="st1" d="M10.3,17.4L10.3,17.4L10.3,17.4z"/>
	<path class="st5" d="M15,17.4L15,17.4L15,17.4z"/>
	<path class="st4" d="M10.3,17.4L10.3,17.4L10.3,17.4z"/>
	<path class="st5" d="M10.2,17.5C10.2,17.5,10.2,17.5,10.2,17.5C10.3,17.5,10.3,17.5,10.2,17.5z"/>
	<path class="st1" d="M14.6,17.5C14.6,17.5,14.6,17.6,14.6,17.5C14.6,17.5,14.6,17.5,14.6,17.5z"/>
	<path class="st5" d="M23.8,17.5v0.3C23.8,17.7,23.8,17.6,23.8,17.5 M15.2,17.6L15.2,17.6L15.2,17.6z"/>
	<path class="st1" d="M10.2,17.6C10.2,17.6,10.2,17.7,10.2,17.6C10.2,17.6,10.2,17.6,10.2,17.6z"/>
	<path class="st5" d="M15.3,17.7L15.3,17.7L15.3,17.7 M15.4,17.7L15.4,17.7L15.4,17.7z"/>
	<path class="st1" d="M10.2,17.7C10.2,17.7,10.2,17.8,10.2,17.7C10.2,17.8,10.2,17.7,10.2,17.7 M14.5,17.8
		C14.5,17.8,14.5,17.8,14.5,17.8C14.6,17.8,14.6,17.8,14.5,17.8z"/>
	<path class="st5" d="M15.5,17.8L15.5,17.8L15.5,17.8 M15.5,17.8L15.5,17.8L15.5,17.8 M14.5,17.8C14.5,17.8,14.5,17.9,14.5,17.8
		C14.6,17.9,14.6,17.8,14.5,17.8z"/>
	<path class="st1" d="M10.1,17.9C10.1,17.9,10.1,17.9,10.1,17.9C10.2,17.9,10.2,17.9,10.1,17.9z"/>
	<path class="st5" d="M15.6,17.8L15.6,17.8L15.6,17.8 M15.6,17.9L15.6,17.9L15.6,17.9z"/>
	<path class="st4" d="M10.1,18C10.1,18,10.1,18,10.1,18C10.1,18,10.1,18,10.1,18 M14.5,18C14.5,18,14.5,18.1,14.5,18
		C14.5,18,14.5,18,14.5,18z"/>
	<path class="st5" d="M15.7,18L15.7,18L15.7,18 M15.8,18L15.8,18L15.8,18z"/>
	<path class="st1" d="M14.5,18.1C14.5,18.1,14.5,18.1,14.5,18.1C14.5,18.1,14.5,18.1,14.5,18.1z"/>
	<path class="st5" d="M23.8,18.1L23.8,18.1C23.8,18.1,23.8,18.1,23.8,18.1z"/>
	<path class="st1" d="M10.1,18.1L10.1,18.1L10.1,18.1z"/>
	<path class="st4" d="M10.1,18.1L10.1,18.1L10.1,18.1z"/>
	<path class="st5" d="M15.9,18.2L15.9,18.2L15.9,18.2 M16,18.2L16,18.2L16,18.2z"/>
	<path class="st1" d="M10,18.2L10,18.2L10,18.2z"/>
	<path class="st5" d="M16,18.2L16,18.2L16,18.2z"/>
	<path class="st4" d="M10,18.3L10,18.3L10,18.3z"/>
	<path class="st5" d="M16,18.3L16,18.3L16,18.3z"/>
	<path class="st1" d="M14.5,18.3L14.5,18.3C14.5,18.3,14.5,18.3,14.5,18.3z"/>
	<path class="st5" d="M23.7,18.3v0.3C23.8,18.5,23.8,18.4,23.7,18.3 M10,18.3L10,18.3L10,18.3z"/>
	<path class="st4" d="M10,18.4L10,18.4L10,18.4z"/>
	<path class="st5" d="M14.5,18.4C14.5,18.4,14.5,18.4,14.5,18.4C14.5,18.4,14.5,18.4,14.5,18.4 M16.2,18.4L16.2,18.4L16.2,18.4z"/>
	<path class="st1" d="M10,18.4L10,18.4L10,18.4z"/>
	<path class="st4" d="M10,18.5L10,18.5L10,18.5z"/>
	<path class="st5" d="M16.4,18.5L16.4,18.5L16.4,18.5z"/>
	<path class="st1" d="M10,18.6L10,18.6L10,18.6 M14.5,18.6C14.5,18.6,14.5,18.6,14.5,18.6C14.5,18.6,14.5,18.6,14.5,18.6z"/>
	<path class="st5" d="M16.4,18.6L16.4,18.6L16.4,18.6 M16.4,18.6L16.4,18.6L16.4,18.6 M14.5,18.7C14.5,18.7,14.5,18.7,14.5,18.7
		C14.5,18.7,14.5,18.6,14.5,18.7 M23.7,18.6v0.2C23.7,18.7,23.7,18.7,23.7,18.6z"/>
	<path class="st1" d="M9.9,18.7C9.9,18.7,9.9,18.7,9.9,18.7C9.9,18.7,9.9,18.7,9.9,18.7z"/>
	<path class="st5" d="M16.6,18.7L16.6,18.7L16.6,18.7 M16.6,18.8L16.6,18.8L16.6,18.8z"/>
	<path class="st1" d="M9.9,18.8L9.9,18.8L9.9,18.8z"/>
	<path class="st5" d="M16.7,18.8L16.7,18.8L16.7,18.8z"/>
	<path class="st4" d="M9.9,18.8L9.9,18.8L9.9,18.8z"/>
	<path class="st1" d="M14.4,18.9C14.4,18.9,14.4,18.9,14.4,18.9C14.4,18.9,14.4,18.9,14.4,18.9z"/>
	<path class="st5" d="M9.9,18.9L9.9,18.9L9.9,18.9 M14.4,18.9C14.4,18.9,14.4,19,14.4,18.9C14.4,19,14.4,18.9,14.4,18.9 M16.8,18.9
		L16.8,18.9L16.8,18.9 M23.7,18.9C23.7,18.9,23.7,19,23.7,18.9C23.7,19,23.7,18.9,23.7,18.9z"/>
	<path class="st1" d="M9.8,19C9.8,19,9.8,19.1,9.8,19C9.8,19.1,9.8,19,9.8,19z"/>
	<path class="st5" d="M17,19L17,19L17,19 M23.7,19v0.2C23.7,19.1,23.7,19.1,23.7,19 M17,19.1L17,19.1L17,19.1 M17,19.1L17,19.1
		L17,19.1z"/>
	<path class="st1" d="M9.8,19.2C9.8,19.2,9.8,19.2,9.8,19.2C9.8,19.2,9.8,19.2,9.8,19.2 M14.4,19.2C14.4,19.2,14.4,19.2,14.4,19.2
		C14.4,19.2,14.4,19.2,14.4,19.2z"/>
	<path class="st5" d="M17.1,19.1L17.1,19.1L17.1,19.1 M17.1,19.2L17.1,19.2L17.1,19.2 M14.4,19.2C14.4,19.2,14.4,19.3,14.4,19.2
		C14.4,19.2,14.4,19.2,14.4,19.2 M17.2,19.2L17.2,19.2L17.2,19.2 M17.2,19.2L17.2,19.2L17.2,19.2z"/>
	<path class="st4" d="M9.8,19.3C9.8,19.3,9.8,19.3,9.8,19.3C9.8,19.3,9.8,19.3,9.8,19.3z"/>
	<path class="st5" d="M17.3,19.3L17.3,19.3L17.3,19.3 M17.3,19.3L17.3,19.3L17.3,19.3 M23.6,19.3v0.2C23.6,19.4,23.6,19.4,23.6,19.3
		 M17.3,19.3L17.3,19.3L17.3,19.3 M9.7,19.4C9.7,19.4,9.7,19.4,9.7,19.4C9.8,19.4,9.8,19.4,9.7,19.4 M17.4,19.4L17.4,19.4L17.4,19.4
		 M17.4,19.4L17.4,19.4L17.4,19.4z"/>
	<path class="st1" d="M14.4,19.5C14.4,19.5,14.4,19.5,14.4,19.5C14.4,19.5,14.4,19.4,14.4,19.5z"/>
	<path class="st4" d="M17.5,19.4L17.5,19.4L17.5,19.4z"/>
	<path class="st5" d="M17.5,19.5L17.5,19.5L17.5,19.5 M23.6,19.5L23.6,19.5C23.6,19.5,23.6,19.5,23.6,19.5z"/>
	<path class="st1" d="M9.7,19.5C9.7,19.5,9.7,19.5,9.7,19.5C9.7,19.5,9.7,19.5,9.7,19.5z"/>
	<path class="st5" d="M14.4,19.5C14.4,19.5,14.4,19.5,14.4,19.5C14.4,19.5,14.4,19.5,14.4,19.5 M17.6,19.6L17.6,19.6L17.6,19.6z"/>
	<path class="st4" d="M9.7,19.6C9.7,19.6,9.7,19.7,9.7,19.6C9.7,19.7,9.7,19.6,9.7,19.6z"/>
	<path class="st5" d="M17.7,19.6L17.7,19.6L17.7,19.6 M17.7,19.7L17.7,19.7L17.7,19.7z"/>
	<path class="st1" d="M14.3,19.7C14.3,19.7,14.3,19.7,14.3,19.7C14.3,19.7,14.3,19.7,14.3,19.7z"/>
	<path class="st5" d="M17.7,19.7L17.7,19.7L17.7,19.7z"/>
	<path class="st4" d="M23.6,19.7L23.6,19.7L23.6,19.7z"/>
	<path class="st1" d="M9.6,19.7L9.6,19.7L9.6,19.7z"/>
	<path class="st5" d="M14.3,19.8C14.3,19.8,14.3,19.8,14.3,19.8C14.3,19.8,14.3,19.8,14.3,19.8z"/>
	<path class="st4" d="M17.8,19.7L17.8,19.7L17.8,19.7 M9.6,19.8L9.6,19.8L9.6,19.8z"/>
	<path class="st5" d="M17.9,19.8L17.9,19.8L17.9,19.8 M23.5,19.8v0.1C23.5,19.8,23.5,19.8,23.5,19.8 M9.6,19.8L9.6,19.8L9.6,19.8z"
		/>
	<path class="st1" d="M9.6,19.9L9.6,19.9L9.6,19.9z"/>
	<path class="st5" d="M18,19.9L18,19.9L18,19.9z"/>
	<path class="st1" d="M9.6,20L9.6,20L9.6,20 M14.3,20C14.3,20,14.3,20,14.3,20C14.3,20,14.3,20,14.3,20z"/>
	<path class="st5" d="M23.5,20v0.2C23.5,20.1,23.5,20,23.5,20z"/>
	<path class="st4" d="M9.6,20L9.6,20L9.6,20z"/>
	<path class="st5" d="M18.1,20L18.1,20L18.1,20 M14.3,20.1C14.3,20.1,14.3,20.1,14.3,20.1C14.3,20.1,14.3,20,14.3,20.1z"/>
	<path class="st1" d="M9.5,20.1L9.5,20.1L9.5,20.1z"/>
	<path class="st5" d="M18.3,20.1L18.3,20.1L18.3,20.1 M18.3,20.1L18.3,20.1L18.3,20.1z"/>
	<path class="st4" d="M18.4,20.2L18.4,20.2L18.4,20.2z"/>
	<path class="st5" d="M23.5,20.2v0.2C23.5,20.3,23.5,20.2,23.5,20.2z"/>
	<path class="st1" d="M9.5,20.2C9.5,20.2,9.5,20.2,9.5,20.2C9.5,20.2,9.5,20.2,9.5,20.2z"/>
	<path class="st5" d="M18.4,20.2L18.4,20.2L18.4,20.2 M18.4,20.2L18.4,20.2L18.4,20.2z"/>
	<path class="st1" d="M14.3,20.3C14.3,20.3,14.3,20.3,14.3,20.3C14.3,20.3,14.3,20.3,14.3,20.3z"/>
	<path class="st5" d="M9.5,20.3L9.5,20.3L9.5,20.3 M14.3,20.3C14.3,20.3,14.3,20.4,14.3,20.3C14.3,20.4,14.3,20.3,14.3,20.3
		 M18.6,20.3L18.6,20.3L18.6,20.3 M18.6,20.3L18.6,20.3L18.6,20.3 M23.4,20.3L23.4,20.3L23.4,20.3z"/>
	<path class="st1" d="M9.4,20.4L9.4,20.4L9.4,20.4z"/>
	<path class="st5" d="M18.7,20.4L18.7,20.4L18.7,20.4 M18.7,20.5L18.7,20.5L18.7,20.5z"/>
	<path class="st1" d="M9.4,20.6C9.4,20.6,9.4,20.6,9.4,20.6C9.4,20.6,9.4,20.5,9.4,20.6 M14.2,20.6C14.2,20.6,14.2,20.6,14.2,20.6
		C14.2,20.6,14.2,20.5,14.2,20.6z"/>
	<path class="st5" d="M23.4,20.5L23.4,20.5L23.4,20.5 M18.9,20.6L18.9,20.6L18.9,20.6 M19,20.6L19,20.6L19,20.6 M23.4,20.7
		C23.4,20.7,23.4,20.7,23.4,20.7C23.4,20.7,23.4,20.6,23.4,20.7z"/>
	<path class="st1" d="M9.4,20.7C9.4,20.7,9.4,20.7,9.4,20.7C9.4,20.7,9.4,20.7,9.4,20.7z"/>
	<path class="st5" d="M19,20.7L19,20.7L19,20.7 M19.1,20.7L19.1,20.7L19.1,20.7 M9.4,20.8C9.4,20.8,9.4,20.8,9.4,20.8
		C9.4,20.8,9.4,20.8,9.4,20.8 M19.1,20.8L19.1,20.8L19.1,20.8 M23.3,20.8v0.1C23.4,20.8,23.4,20.8,23.3,20.8z"/>
	<path class="st1" d="M14.2,20.8C14.2,20.8,14.2,20.8,14.2,20.8C14.2,20.8,14.2,20.8,14.2,20.8z"/>
	<path class="st5" d="M19.2,20.8L19.2,20.8L19.2,20.8 M14.2,20.9C14.2,20.9,14.2,20.9,14.2,20.9C14.2,20.9,14.2,20.9,14.2,20.9
		 M19.3,20.9L19.3,20.9L19.3,20.9z"/>
	<path class="st1" d="M9.3,20.9C9.3,20.9,9.3,20.9,9.3,20.9C9.3,20.9,9.3,20.9,9.3,20.9z"/>
	<path class="st5" d="M19.3,20.9L19.3,20.9L19.3,20.9 M23.3,20.9V21C23.3,21,23.3,21,23.3,20.9 M19.4,20.9L19.4,20.9L19.4,20.9z"/>
	<path class="st1" d="M9.3,21C9.3,21,9.3,21.1,9.3,21C9.3,21.1,9.3,21,9.3,21z"/>
	<path class="st5" d="M19.5,21L19.5,21L19.5,21z"/>
	<path class="st1" d="M14.2,21L14.2,21C14.2,21.1,14.2,21.1,14.2,21z"/>
	<path class="st5" d="M19.6,21.1L19.6,21.1L19.6,21.1z"/>
	<path class="st4" d="M9.3,21.2C9.3,21.2,9.3,21.2,9.3,21.2C9.3,21.2,9.3,21.1,9.3,21.2z"/>
	<path class="st5" d="M19.6,21.1L19.6,21.1L19.6,21.1 M19.7,21.2L19.7,21.2L19.7,21.2 M19.7,21.2L19.7,21.2L19.7,21.2 M19.8,21.2
		L19.8,21.2L19.8,21.2z"/>
	<path class="st1" d="M9.2,21.3L9.2,21.3L9.2,21.3z"/>
	<path class="st5" d="M19.8,21.3L19.8,21.3L19.8,21.3z"/>
	<path class="st4" d="M9.2,21.3L9.2,21.3L9.2,21.3z"/>
	<path class="st5" d="M19.9,21.3L19.9,21.3L19.9,21.3z"/>
	<path class="st1" d="M14.1,21.3C14.1,21.3,14.1,21.4,14.1,21.3C14.1,21.4,14.2,21.3,14.1,21.3z"/>
	<path class="st5" d="M19.9,21.3L19.9,21.3L19.9,21.3z"/>
	<path class="st1" d="M9.2,21.4C9.2,21.4,9.2,21.4,9.2,21.4C9.2,21.4,9.2,21.4,9.2,21.4z"/>
	<path class="st5" d="M14.1,21.4L14.1,21.4C14.1,21.4,14.1,21.4,14.1,21.4 M23.2,21.4L23.2,21.4L23.2,21.4 M20.1,21.5L20.1,21.5
		L20.1,21.5z"/>
	<path class="st1" d="M9.2,21.5L9.2,21.5L9.2,21.5z"/>
	<path class="st4" d="M9.2,21.5L9.2,21.5L9.2,21.5z"/>
	<path class="st5" d="M20.2,21.5L20.2,21.5L20.2,21.5 M23.2,21.5C23.2,21.5,23.2,21.6,23.2,21.5C23.2,21.6,23.2,21.5,23.2,21.5
		 M20.2,21.5L20.2,21.5L20.2,21.5z"/>
	<path class="st1" d="M9.1,21.6L9.1,21.6L9.1,21.6 M14.1,21.6L14.1,21.6C14.1,21.7,14.1,21.7,14.1,21.6z"/>
	<path class="st5" d="M20.3,21.6L20.3,21.6L20.3,21.6 M20.3,21.6L20.3,21.6L20.3,21.6z"/>
	<path class="st1" d="M9.1,21.7C9.1,21.7,9.1,21.8,9.1,21.7C9.1,21.7,9.1,21.7,9.1,21.7z"/>
	<path class="st5" d="M20.4,21.7L20.4,21.7L20.4,21.7 M20.5,21.8L20.5,21.8L20.5,21.8 M20.6,21.8L20.6,21.8L20.6,21.8 M9.1,21.8
		L9.1,21.8L9.1,21.8z"/>
	<path class="st4" d="M9.1,21.9L9.1,21.9L9.1,21.9z"/>
	<path class="st1" d="M14.1,21.9C14.1,21.9,14.1,22,14.1,21.9C14.1,21.9,14.1,21.9,14.1,21.9z"/>
	<path class="st5" d="M20.7,21.9L20.7,21.9L20.7,21.9 M23.1,21.9C23.1,21.9,23.1,22,23.1,21.9C23.1,21.9,23.1,21.9,23.1,21.9z"/>
	<path class="st1" d="M9,22L9,22L9,22z"/>
	<path class="st5" d="M14.1,22C14.1,22,14.1,22,14.1,22C14.1,22,14.1,22,14.1,22 M20.8,22L20.8,22L20.8,22 M20.9,22L20.9,22L20.9,22
		z"/>
	<path class="st1" d="M9,22.1C9,22.1,9,22.1,9,22.1C9,22.1,9,22.1,9,22.1z"/>
	<path class="st5" d="M20.9,22.1L20.9,22.1L20.9,22.1 M21,22.1L21,22.1L21,22.1 M21,22.2L21,22.2L21,22.2z"/>
	<path class="st1" d="M9,22.2C9,22.2,9,22.2,9,22.2C9,22.2,9,22.2,9,22.2 M14,22.2C14,22.2,14,22.2,14,22.2
		C14.1,22.2,14.1,22.2,14,22.2z"/>
	<path class="st5" d="M21.1,22.2L21.1,22.2L21.1,22.2 M23,22.2L23,22.2L23,22.2 M21.1,22.2L21.1,22.2L21.1,22.2 M21.2,22.2
		L21.2,22.2L21.2,22.2 M21.2,22.3L21.2,22.3L21.2,22.3 M23,22.3L23,22.3C23,22.3,23,22.3,23,22.3z"/>
	<path class="st4" d="M8.9,22.3C8.9,22.3,8.9,22.4,8.9,22.3C9,22.3,9,22.3,8.9,22.3z"/>
	<path class="st5" d="M23,22.4C23,22.4,23,22.4,23,22.4C23,22.4,23,22.4,23,22.4z"/>
	<path class="st4" d="M8.9,22.5C8.9,22.5,8.9,22.5,8.9,22.5C8.9,22.5,8.9,22.4,8.9,22.5z"/>
	<path class="st5" d="M21.4,22.4C21.4,22.5,21.4,22.5,21.4,22.4C21.5,22.4,21.4,22.4,21.4,22.4z"/>
	<path class="st1" d="M14,22.5C14,22.5,14,22.5,14,22.5C14,22.5,14,22.5,14,22.5z"/>
	<path class="st5" d="M21.5,22.5C21.5,22.5,21.5,22.5,21.5,22.5C21.5,22.5,21.5,22.5,21.5,22.5 M21.5,22.5L21.5,22.5L21.5,22.5
		 M21.6,22.5L21.6,22.5L21.6,22.5z"/>
	<path class="st4" d="M8.9,22.6C8.9,22.6,8.9,22.6,8.9,22.6C8.9,22.6,8.9,22.6,8.9,22.6z"/>
	<path class="st5" d="M21.6,22.6C21.6,22.6,21.7,22.6,21.6,22.6C21.7,22.6,21.6,22.6,21.6,22.6 M21.7,22.6L21.7,22.6L21.7,22.6
		 M21.7,22.6C21.7,22.7,21.8,22.7,21.7,22.6C21.8,22.6,21.7,22.6,21.7,22.6 M21.8,22.7L21.8,22.7L21.8,22.7 M22.9,22.7L22.9,22.7
		L22.9,22.7z"/>
	<path class="st1" d="M8.9,22.7C8.8,22.7,8.8,22.7,8.9,22.7C8.9,22.7,8.9,22.7,8.9,22.7z"/>
	<path class="st5" d="M21.8,22.7L21.8,22.7L21.8,22.7z"/>
	<path class="st1" d="M14,22.7L14,22.7C14,22.8,14,22.8,14,22.7z"/>
	<path class="st5" d="M21.9,22.7L21.9,22.7L21.9,22.7z"/>
	<path class="st4" d="M22.9,22.7L22.9,22.7C22.9,22.8,22.9,22.8,22.9,22.7z"/>
	<path class="st5" d="M21.9,22.8L21.9,22.8L21.9,22.8 M22,22.8L22,22.8L22,22.8z"/>
	<path class="st1" d="M8.8,22.8C8.8,22.8,8.8,22.9,8.8,22.8C8.8,22.9,8.8,22.8,8.8,22.8z"/>
	<path class="st5" d="M22.2,22.9L22.2,22.9L22.2,22.9 M22.8,22.9C22.8,22.9,22.8,22.9,22.8,22.9C22.9,22.9,22.9,22.9,22.8,22.9
		 M22.2,22.9L22.2,22.9L22.2,22.9z"/>
	<path class="st4" d="M22.2,22.9L22.2,22.9L22.2,22.9z"/>
	<path class="st1" d="M8.8,23C8.8,23,8.8,23,8.8,23C8.8,23,8.8,22.9,8.8,23z"/>
	<path class="st5" d="M22.3,22.9L22.3,22.9L22.3,22.9 M22.3,23L22.3,23L22.3,23z"/>
	<path class="st1" d="M13.9,23C13.9,23,13.9,23.1,13.9,23C14,23,14,23,13.9,23z"/>
	<path class="st5" d="M22.4,23L22.4,23L22.4,23 M22.8,23L22.8,23C22.8,23.1,22.8,23.1,22.8,23 M22.4,23L22.4,23L22.4,23z"/>
	<path class="st1" d="M8.7,23.1L8.7,23.1C8.8,23.1,8.8,23.1,8.7,23.1z"/>
	<path class="st5" d="M13.9,23.1C13.9,23.1,13.9,23.1,13.9,23.1C14,23.1,14,23.1,13.9,23.1 M22.5,23.1L22.5,23.1L22.5,23.1
		 M22.6,23.1L22.6,23.1L22.6,23.1 M22.6,23.1c0,0,0.1,0,0.1,0C22.7,23.1,22.7,23.1,22.6,23.1z"/>
	<path class="st1" d="M8.7,23.2C8.7,23.2,8.7,23.3,8.7,23.2C8.7,23.3,8.7,23.2,8.7,23.2 M13.9,23.3C13.9,23.3,13.9,23.3,13.9,23.3
		C13.9,23.3,13.9,23.3,13.9,23.3 M8.7,23.4C8.7,23.4,8.7,23.4,8.7,23.4C8.7,23.4,8.7,23.4,8.7,23.4z"/>
	<path class="st5" d="M8.7,23.5C8.7,23.5,8.7,23.6,8.7,23.5C8.7,23.6,8.7,23.5,8.7,23.5z"/>
	<path class="st1" d="M13.9,23.6C13.9,23.6,13.9,23.6,13.9,23.6C13.9,23.6,13.9,23.5,13.9,23.6z"/>
	<path class="st4" d="M8.7,23.6C8.7,23.6,8.7,23.6,8.7,23.6C8.7,23.6,8.7,23.6,8.7,23.6z"/>
	<path class="st5" d="M13.9,23.6C13.9,23.6,13.9,23.7,13.9,23.6C13.9,23.6,13.9,23.6,13.9,23.6z"/>
	<path class="st1" d="M8.6,23.7C8.6,23.7,8.6,23.8,8.6,23.7C8.6,23.7,8.6,23.7,8.6,23.7z"/>
	<path class="st4" d="M8.6,23.8C8.6,23.8,8.6,23.8,8.6,23.8C8.6,23.8,8.6,23.8,8.6,23.8z"/>
	<path class="st1" d="M13.9,23.8C13.9,23.8,13.8,23.9,13.9,23.8C13.9,23.9,13.9,23.8,13.9,23.8z"/>
	<path class="st5" d="M8.6,23.9C8.6,23.9,8.6,23.9,8.6,23.9C8.6,23.9,8.6,23.9,8.6,23.9 M13.9,23.9C13.9,23.9,13.8,23.9,13.9,23.9
		C13.9,23.9,13.9,23.9,13.9,23.9z"/>
	<path class="st1" d="M8.6,24C8.6,24,8.6,24,8.6,24C8.6,24,8.6,24,8.6,24z"/>
	<path class="st4" d="M8.6,24C8.6,24,8.6,24.1,8.6,24C8.6,24.1,8.6,24,8.6,24z"/>
	<path class="st1" d="M13.8,24.1C13.8,24.1,13.8,24.2,13.8,24.1C13.8,24.2,13.8,24.1,13.8,24.1z"/>
	<path class="st5" d="M8.6,24.1v0.3C8.6,24.4,8.6,24.3,8.6,24.1 M13.8,24.2C13.8,24.2,13.8,24.2,13.8,24.2
		C13.8,24.2,13.8,24.2,13.8,24.2z"/>
	<path class="st1" d="M13.8,24.4L13.8,24.4C13.8,24.4,13.8,24.4,13.8,24.4 M8.6,24.6L8.6,24.6L8.6,24.6z"/>
	<path class="st4" d="M8.6,24.7L8.6,24.7L8.6,24.7z"/>
	<path class="st1" d="M13.8,24.7C13.8,24.7,13.8,24.7,13.8,24.7C13.8,24.7,13.8,24.7,13.8,24.7z"/>
	<path class="st5" d="M13.8,24.7C13.8,24.7,13.8,24.8,13.8,24.7C13.8,24.8,13.8,24.7,13.8,24.7 M8.7,24.9L8.7,24.9L8.7,24.9z"/>
	<path class="st1" d="M13.7,24.9L13.7,24.9C13.7,25,13.7,25,13.7,24.9z"/>
	<path class="st4" d="M8.9,25.1L8.9,25.1L8.9,25.1z"/>
	<path class="st1" d="M13.7,25.2L13.7,25.2C13.7,25.3,13.7,25.3,13.7,25.2 M9,25.3L9,25.3L9,25.3 M13.7,25.5
		C13.7,25.5,13.7,25.6,13.7,25.5C13.7,25.5,13.7,25.5,13.7,25.5 M9.3,25.6L9.3,25.6L9.3,25.6 M9.4,25.7L9.4,25.7L9.4,25.7 M9.4,25.7
		L9.4,25.7L9.4,25.7 M9.4,25.7L9.4,25.7L9.4,25.7 M9.5,25.8L9.5,25.8L9.5,25.8 M9.5,25.8L9.5,25.8L9.5,25.8 M13.6,25.8
		C13.6,25.8,13.6,25.8,13.6,25.8C13.6,25.8,13.6,25.8,13.6,25.8 M9.5,25.8L9.5,25.8L9.5,25.8 M9.6,25.9L9.6,25.9L9.6,25.9z"/>
	<path class="st5" d="M9.6,25.9L9.6,25.9L9.6,25.9 M9.6,25.9L9.6,25.9L9.6,25.9 M9.7,25.9L9.7,25.9L9.7,25.9z"/>
	<path class="st1" d="M9.8,26L9.8,26L9.8,26 M9.8,26L9.8,26L9.8,26 M13.6,26L13.6,26C13.6,26.1,13.6,26.1,13.6,26 M9.8,26.1
		L9.8,26.1L9.8,26.1 M9.9,26.1L9.9,26.1L9.9,26.1z"/>
	<path class="st5" d="M9.9,26.1L9.9,26.1L9.9,26.1z"/>
	<path class="st1" d="M13.6,26.3C13.6,26.3,13.6,26.4,13.6,26.3C13.6,26.3,13.6,26.3,13.6,26.3z"/>
	<path class="st5" d="M13.6,26.4C13.6,26.4,13.6,26.4,13.6,26.4C13.6,26.4,13.6,26.4,13.6,26.4z"/>
	<path class="st1" d="M13.5,26.6C13.5,26.6,13.5,26.6,13.5,26.6C13.5,26.6,13.6,26.6,13.5,26.6 M13.5,26.9L13.5,26.9
		C13.5,26.9,13.5,26.9,13.5,26.9 M13.5,27.2C13.5,27.2,13.5,27.2,13.5,27.2C13.5,27.2,13.5,27.2,13.5,27.2z"/>
	<path class="st4" d="M11.1,27.2L11.1,27.2L11.1,27.2 M11.1,27.2L11.1,27.2L11.1,27.2z"/>
	<path class="st1" d="M11.2,27.2L11.2,27.2L11.2,27.2 M11.2,27.3L11.2,27.3L11.2,27.3z"/>
	<path class="st4" d="M11.2,27.3C11.2,27.3,11.3,27.3,11.2,27.3C11.3,27.3,11.2,27.3,11.2,27.3z"/>
	<path class="st1" d="M11.3,27.3L11.3,27.3L11.3,27.3 M11.3,27.4L11.3,27.4L11.3,27.4 M11.3,27.4L11.3,27.4L11.3,27.4z"/>
	<path class="st4" d="M11.4,27.4C11.4,27.5,11.4,27.5,11.4,27.4C11.4,27.4,11.4,27.4,11.4,27.4z"/>
	<path class="st1" d="M13.4,27.5C13.4,27.5,13.4,27.5,13.4,27.5C13.5,27.5,13.5,27.4,13.4,27.5 M11.4,27.5L11.4,27.5L11.4,27.5
		 M11.5,27.5L11.5,27.5L11.5,27.5 M11.5,27.5L11.5,27.5L11.5,27.5z"/>
	<path class="st5" d="M11.5,27.6L11.5,27.6L11.5,27.6z"/>
	<path class="st1" d="M11.6,27.6C11.6,27.6,11.6,27.6,11.6,27.6C11.6,27.6,11.6,27.6,11.6,27.6 M11.6,27.6L11.6,27.6L11.6,27.6z"/>
	<path class="st5" d="M11.7,27.7L11.7,27.7L11.7,27.7z"/>
	<path class="st1" d="M13.4,27.7L13.4,27.7C13.4,27.7,13.4,27.7,13.4,27.7 M11.8,27.8L11.8,27.8L11.8,27.8 M13.4,28L13.4,28
		C13.4,28,13.4,28,13.4,28 M13.3,28.3C13.3,28.3,13.3,28.3,13.3,28.3C13.4,28.3,13.4,28.3,13.3,28.3 M13.3,28.6
		C13.3,28.6,13.3,28.6,13.3,28.6C13.3,28.6,13.3,28.5,13.3,28.6 M12.8,28.7L12.8,28.7L12.8,28.7 M12.8,28.7L12.8,28.7L12.8,28.7
		 M13.3,28.8L13.3,28.8C13.3,28.9,13.3,28.9,13.3,28.8 M12.9,28.9L12.9,28.9L12.9,28.9 M13,29L13,29L13,29 M13.1,29L13.1,29L13.1,29
		 M13.1,29.1L13.1,29.1L13.1,29.1 M13.2,29.1L13.2,29.1C13.3,29.2,13.3,29.2,13.2,29.1 M13.1,29.2L13.1,29.2L13.1,29.2z"/>
	<path class="st4" d="M13.1,29.2L13.1,29.2L13.1,29.2 M13.2,29.3L13.2,29.3C13.2,29.4,13.2,29.4,13.2,29.3L13.2,29.3z"/>
</g>
</svg>
